<?xml version="1.0" encoding="UTF-8"?>
<svg id="Capa_1" data-name="Capa 1" xmlns="http://www.w3.org/2000/svg" viewBox="0 0 260 260">
  <defs>
    <style>
      .cls-1 {
        fill: #fff;
        stroke-width: 0px;
      }
    </style>
  </defs>
  <path class="cls-1" d="M81.45,124.791c0,26.841,21.833,48.675,48.675,48.675s48.675-21.835,48.675-48.675-21.835-48.675-48.675-48.675-48.675,21.835-48.675,48.675ZM130.125,100.569c13.357,0,24.222,10.865,24.222,24.222s-10.865,24.222-24.222,24.222-24.222-10.865-24.222-24.222,10.865-24.222,24.222-24.222Z"/>
  <path class="cls-1" d="M57.283,90.008l.666.479.02.014,16.764,12.071,19.052-26.459-16.063-11.566-.03-.022-.687-.494c14.222-12.448,32.779-20.058,53.119-20.058s38.803,7.569,53.01,19.96l3.876-2.791,16.378-11.792h.001c-18.969-18.426-44.793-29.83-73.264-29.83s-54.395,11.443-73.374,29.93h0l-3.818-2.748-15.786-11.367-19.052,26.459,15.786,11.367,3.276,2.358,16.779,12.082,3.346,2.408ZM38.426,68.534l-10.564-7.607,11.561-16.055,10.564,7.606,2.316,1.667,17.665,12.719,2.278,1.639.698.503.03.022,11.043,7.952-11.561,16.055-11.455-8.247-.023-.017-.679-.489-1.892-1.362-17.985-12.949-1.996-1.436h.001Z"/>
  <path class="cls-1" d="M223.03,75.384l3.089-2.224,15.785-11.367-19.052-26.459-15.785,11.367-3.677,2.648-16.378,11.792-3.876,2.791-.69.497-.03.022-16.199,11.663,19.052,26.459,16.952-12.207.02-.014.663-.478c5.101,10.586,8.044,22.399,8.044,34.915,0,38.982-27.743,71.605-64.52,79.168v-19.452h-32.605v19.453c-36.776-7.563-64.519-40.187-64.519-79.168,0-12.464,2.919-24.229,7.979-34.782l-3.346-2.408-16.779-12.082h0c-7.831,14.713-12.307,31.472-12.307,49.272,0,52.492,38.657,96.004,88.972,103.881v25.624h32.605v-25.625c50.315-7.876,88.973-51.39,88.973-103.881,0-17.851-4.498-34.66-12.371-49.405h-.001ZM140.019,229.564h0v17.313h-19.785v-54.951h19.785v37.638ZM201.593,82.92l-1.718,1.236-.676.487-.023.017-11.632,8.375-11.561-16.055,11.193-8.059.03-.022.702-.505,2.126-1.53,17.817-12.828,2.164-1.559,10.564-7.606,11.561,16.055-10.564,7.607h0l-1.822,1.31-18.159,13.075h0Z"/>
</svg>