<?xml version="1.0" encoding="UTF-8"?>
<svg id="Capa_1" data-name="Capa 1" xmlns="http://www.w3.org/2000/svg" xmlns:xlink="http://www.w3.org/1999/xlink" viewBox="0 0 260 260">
  <defs>
    <style>
      .cls-1 {
        fill: url(#Degradado_sin_nombre_3);
      }

      .cls-1, .cls-2, .cls-3, .cls-4 {
        stroke-width: 0px;
      }

      .cls-2 {
        fill: aqua;
      }

      .cls-3 {
        fill: #f0f;
      }

      .cls-4 {
        fill: #fff;
      }
    </style>
    <linearGradient id="Degradado_sin_nombre_3" data-name="Degradado sin nombre 3" x1="0" y1="260" x2="260" y2="0" gradientUnits="userSpaceOnUse">
      <stop offset="0" stop-color="aqua"/>
      <stop offset="1" stop-color="#f0f"/>
    </linearGradient>
  </defs>
  <rect class="cls-1" x="0" width="260" height="260"/>
  <g>
    <path class="cls-3" d="M86.876,129.991c0,21.731,17.677,39.409,39.409,39.409s39.409-17.678,39.409-39.409-17.678-39.409-39.409-39.409-39.409,17.678-39.409,39.409ZM126.285,110.38c10.814,0,19.611,8.797,19.611,19.611s-8.797,19.611-19.611,19.611-19.611-8.797-19.611-19.611,8.797-19.611,19.611-19.611Z"/>
    <path class="cls-3" d="M67.309,101.83l.539.388.016.011,13.573,9.773,15.425-21.422-13.005-9.364-.024-.018-.556-.4c11.515-10.078,26.539-16.24,43.007-16.24s31.416,6.128,42.919,16.16l3.138-2.26,13.26-9.547h.001c-15.358-14.919-36.266-24.152-59.317-24.152s-44.04,9.266-59.406,24.233h0l-3.091-2.225-12.781-9.203-15.425,21.422,12.781,9.203,2.652,1.909,13.585,9.782s2.709,1.95,2.709,1.95ZM52.042,84.445l-8.553-6.159,9.36-12.999,8.553,6.158,1.875,1.35,14.302,10.298,1.844,1.327.565.407.024.018,8.941,6.438-9.36,12.999-9.274-6.677-.019-.014-.55-.396-1.532-1.103-14.561-10.484-1.616-1.163h.001Z"/>
    <path class="cls-3" d="M201.504,89.99l2.501-1.801,12.78-9.203-15.425-21.422-12.78,9.203-2.977,2.144-13.26,9.547-3.138,2.26-.559.402-.024.018-13.115,9.443,15.425,21.422,13.725-9.883.016-.011.537-.387c4.13,8.571,6.513,18.135,6.513,28.268,0,31.561-22.462,57.974-52.238,64.097v-15.749h-26.398v15.75c-29.775-6.123-52.237-32.537-52.237-64.097,0-10.091,2.363-19.617,6.46-28.161l-2.709-1.95-13.585-9.782h0c-6.34,11.912-9.964,25.481-9.964,39.892,0,42.499,31.298,77.728,72.035,84.106v20.746h26.398v-20.747c40.737-6.377,72.036-41.607,72.036-84.106,0-14.453-3.642-28.062-10.016-40h-.001ZM134.295,214.819h0v14.017h-16.019v-44.49h16.019v30.473ZM184.148,96.091l-1.391,1.001-.547.394-.019.014-9.418,6.781-9.36-12.999,9.062-6.525.024-.018.568-.409,1.721-1.239,14.425-10.386,1.752-1.262,8.553-6.158,9.36,12.999-8.553,6.159h0l-1.475,1.061-14.702,10.586h0Z"/>
    <path class="cls-2" d="M89.775,126.567c0,21.731,17.677,39.409,39.409,39.409s39.409-17.678,39.409-39.409-17.678-39.409-39.409-39.409-39.409,17.678-39.409,39.409ZM129.184,106.956c10.814,0,19.611,8.797,19.611,19.611s-8.797,19.611-19.611,19.611-19.611-8.797-19.611-19.611,8.797-19.611,19.611-19.611Z"/>
    <path class="cls-2" d="M70.208,98.406l.539.388.016.011,13.573,9.773,15.425-21.422-13.005-9.364-.024-.018-.556-.4c11.515-10.078,26.539-16.24,43.007-16.24s31.416,6.128,42.919,16.16l3.138-2.26,13.26-9.547h.001c-15.358-14.918-36.267-24.151-59.317-24.151s-44.04,9.265-59.406,24.232h0l-3.091-2.225-12.781-9.203-15.425,21.422,12.781,9.203,2.652,1.909,13.585,9.782s2.709,1.95,2.709,1.95ZM54.94,81.02l-8.553-6.159,9.36-12.999,8.553,6.158,1.875,1.35,14.302,10.298,1.844,1.327.565.407.024.018,8.941,6.438-9.36,12.999-9.274-6.677-.019-.014-.55-.396-1.532-1.103-14.561-10.484-1.616-1.163h.001Z"/>
    <path class="cls-2" d="M204.403,86.566l2.501-1.801,12.78-9.203-15.425-21.422-12.78,9.203-2.977,2.144-13.26,9.547-3.138,2.26-.559.402-.024.018-13.115,9.443,15.425,21.422,13.725-9.883.016-.011.537-.387c4.13,8.571,6.513,18.135,6.513,28.268,0,31.561-22.462,57.974-52.238,64.097v-15.749h-26.398v15.75c-29.775-6.123-52.237-32.537-52.237-64.097,0-10.091,2.363-19.617,6.46-28.161l-2.709-1.95-13.585-9.782h0c-6.34,11.912-9.964,25.481-9.964,39.892,0,42.499,31.298,77.728,72.035,84.106v20.746h26.398v-20.747c40.737-6.377,72.036-41.607,72.036-84.106,0-14.453-3.642-28.062-10.016-40h-.001ZM137.194,211.395h0v14.017h-16.019v-44.49h16.019v30.473h0ZM187.047,92.667l-1.391,1.001-.547.394-.019.014-9.418,6.781-9.36-12.999,9.062-6.525.024-.018.568-.409,1.721-1.239,14.425-10.386,1.752-1.262,8.553-6.158,9.36,12.999-8.553,6.159h0l-1.475,1.061-14.702,10.586h0Z"/>
    <path class="cls-4" d="M94.509,126.589c0,21.731,17.677,39.409,39.409,39.409s39.409-17.678,39.409-39.409-17.678-39.409-39.409-39.409-39.409,17.678-39.409,39.409ZM133.918,106.978c10.814,0,19.611,8.797,19.611,19.611s-8.797,19.611-19.611,19.611-19.611-8.797-19.611-19.611,8.797-19.611,19.611-19.611Z"/>
    <path class="cls-4" d="M74.942,98.428l.539.388.016.011,13.573,9.773,15.425-21.422-13.005-9.364-.024-.018-.556-.4c11.515-10.078,26.539-16.24,43.007-16.24s31.416,6.128,42.919,16.16l3.138-2.26,13.26-9.547h.001c-15.358-14.918-36.266-24.151-59.317-24.151s-44.04,9.265-59.406,24.232h0l-3.091-2.225-12.781-9.203-15.425,21.422,12.781,9.203,2.652,1.909,13.585,9.782,2.709,1.95ZM59.675,81.042l-8.553-6.159,9.36-12.999,8.553,6.158,1.875,1.35,14.302,10.298,1.844,1.327.565.407.024.018,8.941,6.438-9.36,12.999-9.274-6.677-.019-.014-.55-.396-1.532-1.103-14.561-10.484-1.616-1.163h.001Z"/>
    <path class="cls-4" d="M209.137,86.588l2.501-1.801,12.78-9.203-15.425-21.422-12.78,9.203-2.977,2.144-13.26,9.547-3.138,2.26-.559.402-.024.018-13.115,9.443,15.425,21.422,13.725-9.883.016-.011.537-.387c4.13,8.571,6.513,18.135,6.513,28.268,0,31.561-22.462,57.974-52.238,64.097v-15.749h-26.398v15.75c-29.775-6.123-52.237-32.537-52.237-64.097,0-10.091,2.363-19.617,6.46-28.161l-2.709-1.95-13.585-9.782h0c-6.34,11.912-9.964,25.481-9.964,39.892,0,42.499,31.298,77.728,72.035,84.106v20.746h26.398v-20.747c40.737-6.377,72.036-41.607,72.036-84.106,0-14.453-3.642-28.062-10.016-40h-.001ZM141.928,211.417h0v14.017h-16.019v-44.49h16.019v30.473ZM191.781,92.689l-1.391,1.001-.547.394-.019.014-9.418,6.781-9.36-12.999,9.062-6.525.024-.018.568-.409,1.721-1.239,14.425-10.386,1.752-1.262,8.553-6.158,9.36,12.999-8.553,6.159h0l-1.475,1.061-14.702,10.586h0Z"/>
  </g>
</svg>