<?xml version="1.0" standalone="no"?>
<!DOCTYPE svg PUBLIC "-//W3C//DTD SVG 20010904//EN"
 "http://www.w3.org/TR/2001/REC-SVG-20010904/DTD/svg10.dtd">
<svg version="1.0" xmlns="http://www.w3.org/2000/svg"
 width="700.000000pt" height="700.000000pt" viewBox="0 0 700.000000 700.000000"
 preserveAspectRatio="xMidYMid meet">
<metadata>
Created by potrace 1.14, written by Peter Selinger 2001-2017
</metadata>
<g transform="translate(0.000000,700.000000) scale(0.100000,-0.100000)"
fill="#000000" stroke="none">
<path d="M3417 6474 c-1 -1 -47 -4 -102 -7 -619 -35 -1249 -304 -1718 -734
l-69 -63 -61 42 c-34 24 -64 45 -67 48 -3 4 -94 70 -202 147 l-197 141 -74
-101 c-40 -56 -127 -176 -192 -267 -115 -160 -160 -222 -220 -304 -27 -38 -28
-39 -9 -53 10 -8 125 -91 256 -184 l236 -170 -52 -112 c-117 -249 -214 -558
-242 -772 -3 -27 -12 -87 -18 -133 -14 -97 -18 -479 -6 -567 5 -33 11 -87 15
-120 4 -33 11 -82 16 -110 5 -27 12 -63 15 -80 36 -205 152 -531 266 -745 93
-174 235 -386 336 -502 241 -277 454 -457 747 -629 238 -141 564 -270 800
-319 87 -18 86 -18 138 -26 26 -3 48 -9 48 -13 1 -3 3 -157 4 -341 1 -184 3
-338 4 -341 1 -5 856 -6 871 -1 3 1 4 156 4 345 l-1 343 25 2 c105 9 431 100
597 169 147 60 359 167 396 199 8 8 19 14 23 14 18 0 260 173 358 257 78 66
309 305 372 383 159 200 306 447 400 671 98 236 180 538 201 749 2 19 7 69 11
110 10 93 11 379 2 480 -32 348 -123 680 -271 984 -26 54 -47 102 -45 106 2 7
157 122 241 180 43 29 242 173 251 181 4 4 -33 65 -84 135 -51 70 -105 145
-119 165 -14 20 -88 123 -164 227 l-137 191 -88 -63 c-265 -191 -368 -266
-377 -273 -56 -47 -51 -48 -139 30 -44 40 -86 77 -93 84 -38 35 -217 163 -306
219 -117 74 -340 186 -474 238 -179 70 -456 142 -616 162 -23 3 -55 7 -72 9
-68 10 -411 25 -418 19z m298 -668 c28 -4 70 -9 95 -12 74 -9 266 -54 359 -83
193 -62 380 -155 561 -279 103 -71 199 -144 199 -152 0 -3 -101 -77 -224 -165
-124 -88 -225 -161 -225 -163 0 -7 60 -93 189 -272 78 -107 178 -247 223 -310
45 -63 87 -118 92 -122 6 -4 24 3 41 16 16 13 122 89 234 169 236 169 201 170
269 -4 72 -187 123 -393 139 -572 10 -106 10 -350 -1 -451 -8 -77 -10 -95 -21
-146 -3 -14 -7 -36 -10 -50 -44 -240 -160 -526 -305 -749 -302 -465 -760 -794
-1297 -930 -45 -12 -83 -21 -86 -21 -2 0 -4 115 -4 255 0 140 -2 258 -5 261
-5 4 -736 8 -853 5 -20 -1 -21 -6 -20 -251 0 -138 -2 -255 -5 -260 -3 -5 -32
-2 -65 6 -33 8 -67 16 -76 19 -114 26 -389 144 -518 220 -98 59 -243 163 -321
230 -82 71 -235 235 -299 319 -242 321 -369 624 -436 1041 -11 69 -14 457 -4
525 5 36 12 83 15 105 22 167 159 585 191 585 4 0 34 -19 65 -43 54 -39 184
-134 302 -219 105 -77 92 -79 166 24 36 49 74 103 85 119 11 15 94 131 184
256 90 125 164 233 165 239 1 7 -46 46 -104 88 -58 41 -109 79 -115 83 -5 5
-56 41 -112 81 -57 40 -103 75 -103 78 0 14 213 173 300 225 243 144 527 250
767 284 21 3 43 8 49 10 7 2 54 7 105 10 52 4 95 8 96 9 5 5 272 -3 318 -8z
m-2525 -106 c58 -42 236 -170 395 -285 525 -377 629 -452 657 -475 18 -14 11
-26 -134 -227 -84 -117 -155 -213 -158 -213 -5 0 -164 113 -305 216 -58 42
-447 322 -489 352 -64 45 -331 238 -373 269 l-32 24 116 162 c64 89 126 174
137 189 12 15 29 38 39 53 11 15 23 22 30 18 7 -4 59 -41 117 -83z m4827 -17
c43 -59 85 -117 93 -129 8 -13 43 -61 77 -108 l63 -86 -48 -34 c-26 -19 -150
-109 -277 -200 -126 -91 -239 -172 -250 -180 -111 -82 -620 -446 -625 -446 -4
0 -282 381 -303 416 -5 9 86 80 300 234 170 122 317 228 328 236 11 8 90 65
176 127 86 61 167 120 180 129 86 63 204 148 206 148 1 0 37 -48 80 -107z
m-2249 -4590 l2 -739 -265 0 c-146 0 -265 2 -266 5 0 3 -1 335 -2 738 -2 725
-2 732 18 735 11 2 130 2 265 1 l245 -1 3 -739z"/>
<path d="M3251 4924 c-501 -102 -888 -467 -1015 -957 -97 -373 -23 -772 201
-1085 200 -278 509 -476 828 -529 17 -3 50 -9 75 -13 69 -13 335 -4 416 14
271 60 479 171 665 356 256 255 391 575 392 930 1 350 -134 670 -388 925 -109
110 -207 182 -336 246 -80 40 -225 94 -279 104 -14 3 -36 7 -50 10 -151 32
-350 31 -509 -1z m422 -656 c226 -62 401 -238 458 -461 88 -339 -100 -682
-434 -789 -83 -27 -259 -33 -342 -13 -212 54 -384 205 -459 404 -84 223 -43
469 109 650 78 93 201 173 315 205 36 10 70 20 75 22 33 11 218 -1 278 -18z"/>
</g>
</svg>
