<?xml version="1.0" encoding="utf-8"?>
<!-- Generator: Adobe Illustrator 28.3.0, SVG Export Plug-In . SVG Version: 6.00 Build 0)  -->
<!DOCTYPE svg PUBLIC "-//W3C//DTD SVG 1.1//EN" "http://www.w3.org/Graphics/SVG/1.1/DTD/svg11.dtd" [
	<!ENTITY ns_extend "http://ns.adobe.com/Extensibility/1.0/">
	<!ENTITY ns_ai "http://ns.adobe.com/AdobeIllustrator/10.0/">
	<!ENTITY ns_graphs "http://ns.adobe.com/Graphs/1.0/">
	<!ENTITY ns_vars "http://ns.adobe.com/Variables/1.0/">
	<!ENTITY ns_imrep "http://ns.adobe.com/ImageReplacement/1.0/">
	<!ENTITY ns_sfw "http://ns.adobe.com/SaveForWeb/1.0/">
	<!ENTITY ns_custom "http://ns.adobe.com/GenericCustomNamespace/1.0/">
	<!ENTITY ns_adobe_xpath "http://ns.adobe.com/XPath/1.0/">
]>
<svg version="1.1" id="Capa_1" xmlns:x="&ns_extend;" xmlns:i="&ns_ai;" xmlns:graph="&ns_graphs;"
	 xmlns="http://www.w3.org/2000/svg" xmlns:xlink="http://www.w3.org/1999/xlink" x="0px" y="0px" viewBox="0 0 50 50"
	 style="enable-background:new 0 0 50 50;" xml:space="preserve">
<style type="text/css">
	.st0{fill:#FFFFFF;}
</style>
<metadata>
	<sfw  xmlns="&ns_sfw;">
		<slices></slices>
		<sliceSourceBounds  bottomLeftOrigin="true" height="33.802" width="41.314" x="4.343" y="8.099"></sliceSourceBounds>
	</sfw>
</metadata>
<g>
	<path class="st0" d="M24.807,25.811h-3.639v5.683h3.801c2.486,0,3.801-0.989,3.801-2.86C28.77,26.761,27.437,25.811,24.807,25.811z
		"/>
	<path class="st0" d="M41.826,19.916c-0.7-2.331-0.798-5.191-0.723-7.399c0.078-2.299-1.666-4.418-4.023-4.418H12.924
		c-2.358,0-4.101,2.119-4.023,4.418c0.075,2.207-0.023,5.068-0.724,7.399c-0.702,2.339-1.892,3.818-3.834,4.008v2.154
		c1.943,0.19,3.131,1.669,3.834,4.007c0.701,2.331,0.799,5.192,0.724,7.399c-0.078,2.299,1.666,4.418,4.023,4.418h24.155
		c2.358,0,4.101-2.119,4.024-4.418c-0.075-2.207,0.022-5.068,0.723-7.399c0.703-2.339,1.889-3.818,3.831-4.008v-2.154
		C43.715,23.733,42.529,22.255,41.826,19.916z M30.055,32.466c-1.072,0.869-2.634,1.329-4.515,1.329h-7.238v-17.59h7.201
		c1.572,0,2.905,0.416,3.854,1.202c0.953,0.789,1.456,1.898,1.456,3.208c0,1.853-1.4,3.534-3.194,3.844v0.027
		c2.44,0.283,4.078,2.014,4.078,4.318C31.698,30.329,31.13,31.595,30.055,32.466z"/>
	<path class="st0" d="M27.95,20.99c0-1.602-1.107-2.484-3.117-2.484h-3.665v5.149h3.08C26.635,23.655,27.949,22.709,27.95,20.99z"/>
</g>
</svg>
