<?xml version="1.0" encoding="utf-8"?>
<!-- Generator: Adobe Illustrator 28.3.0, SVG Export Plug-In . SVG Version: 6.00 Build 0)  -->
<!DOCTYPE svg PUBLIC "-//W3C//DTD SVG 1.1//EN" "http://www.w3.org/Graphics/SVG/1.1/DTD/svg11.dtd" [
	<!ENTITY ns_extend "http://ns.adobe.com/Extensibility/1.0/">
	<!ENTITY ns_ai "http://ns.adobe.com/AdobeIllustrator/10.0/">
	<!ENTITY ns_graphs "http://ns.adobe.com/Graphs/1.0/">
	<!ENTITY ns_vars "http://ns.adobe.com/Variables/1.0/">
	<!ENTITY ns_imrep "http://ns.adobe.com/ImageReplacement/1.0/">
	<!ENTITY ns_sfw "http://ns.adobe.com/SaveForWeb/1.0/">
	<!ENTITY ns_custom "http://ns.adobe.com/GenericCustomNamespace/1.0/">
	<!ENTITY ns_adobe_xpath "http://ns.adobe.com/XPath/1.0/">
]>
<svg version="1.1" id="Capa_1" xmlns:x="&ns_extend;" xmlns:i="&ns_ai;" xmlns:graph="&ns_graphs;"
	 xmlns="http://www.w3.org/2000/svg" xmlns:xlink="http://www.w3.org/1999/xlink" x="0px" y="0px" viewBox="0 0 50 50"
	 style="enable-background:new 0 0 50 50;" xml:space="preserve">
<style type="text/css">
	.st0{fill:#FFFFFF;}
</style>
<metadata>
	<sfw  xmlns="&ns_sfw;">
		<slices></slices>
		<sliceSourceBounds  bottomLeftOrigin="true" height="29.348" width="40.02" x="4.99" y="10.326"></sliceSourceBounds>
	</sfw>
</metadata>
<path class="st0" d="M30.336,10.326c-4.015,0-7.645,1.614-10.3,4.229c-0.774-0.147-1.559-0.227-2.373-0.227
	c-6.99,0-12.673,5.683-12.673,12.673s5.683,12.673,12.673,12.673h6.003h6.67c8.097,0,14.674-6.577,14.674-14.674
	S38.434,10.326,30.336,10.326z M30.336,12.994c6.617,0,12.006,5.389,12.006,12.006s-5.389,12.006-12.006,12.006
	c-1.921,0-3.602-0.495-5.109-1.282c-2.081-1.081-3.843-2.747-5.511-4.521l-1.399-1.521c-0.747-0.814-1.495-1.64-2.269-2.4
	c-0.52-0.52-0.52-1.377,0-1.897c0.52-0.52,1.377-0.52,1.897,0c0.787,0.8,1.561,1.642,2.335,2.496
	c3.042,3.322,5.908,6.457,10.057,6.457c5.149,0,9.338-4.189,9.338-9.338s-4.189-9.338-9.338-9.338c-1.828,0-3.576,0.522-5.071,1.509
	c-0.747-0.574-1.558-1.107-2.425-1.547C24.961,13.929,27.588,12.994,30.336,12.994z M17.663,16.996c1.561,0,2.974,0.455,4.268,1.175
	c0.694,0.374,1.335,0.812,1.949,1.306c1.334,1.041,2.52,2.269,3.587,3.403c0.387,0.4,0.775,0.799,1.149,1.173
	c0.52,0.52,0.52,1.377,0,1.897c-0.52,0.52-1.377,0.52-1.897,0c-0.387-0.387-0.772-0.803-1.186-1.23
	c-2.266-2.376-4.828-5.056-7.869-5.056c-4.042,0-7.337,3.295-7.337,7.337s3.295,7.337,7.337,7.337c0.427,0,0.852-0.04,1.266-0.12
	c0.72,0.72,1.509,1.441,2.363,2.108c-1.146,0.454-2.375,0.68-3.629,0.68c-5.523,0-10.005-4.482-10.005-10.005
	S12.14,16.996,17.663,16.996z"/>
</svg>
