<?xml version="1.0" encoding="utf-8"?>
<!-- Generator: Adobe Illustrator 28.3.0, SVG Export Plug-In . SVG Version: 6.00 Build 0)  -->
<!DOCTYPE svg PUBLIC "-//W3C//DTD SVG 1.1//EN" "http://www.w3.org/Graphics/SVG/1.1/DTD/svg11.dtd" [
	<!ENTITY ns_extend "http://ns.adobe.com/Extensibility/1.0/">
	<!ENTITY ns_ai "http://ns.adobe.com/AdobeIllustrator/10.0/">
	<!ENTITY ns_graphs "http://ns.adobe.com/Graphs/1.0/">
	<!ENTITY ns_vars "http://ns.adobe.com/Variables/1.0/">
	<!ENTITY ns_imrep "http://ns.adobe.com/ImageReplacement/1.0/">
	<!ENTITY ns_sfw "http://ns.adobe.com/SaveForWeb/1.0/">
	<!ENTITY ns_custom "http://ns.adobe.com/GenericCustomNamespace/1.0/">
	<!ENTITY ns_adobe_xpath "http://ns.adobe.com/XPath/1.0/">
]>
<svg version="1.1" id="Capa_1" xmlns:x="&ns_extend;" xmlns:i="&ns_ai;" xmlns:graph="&ns_graphs;"
	 xmlns="http://www.w3.org/2000/svg" xmlns:xlink="http://www.w3.org/1999/xlink" x="0px" y="0px" viewBox="0 0 50 50"
	 style="enable-background:new 0 0 50 50;" xml:space="preserve">
<style type="text/css">
	.st0{fill:#FFFFFF;}
</style>
<metadata>
	<sfw  xmlns="&ns_sfw;">
		<slices></slices>
		<sliceSourceBounds  bottomLeftOrigin="true" height="35.82" width="35.182" x="7.409" y="7.09"></sliceSourceBounds>
	</sfw>
</metadata>
<path class="st0" d="M25.322,42.91c-9.877,0-17.913-8.033-17.913-17.91S15.445,7.09,25.322,7.09c4.474,0,8.757,1.658,12.064,4.669
	l0.602,0.551l-5.907,5.907l-0.548-0.468c-1.734-1.484-3.939-2.303-6.211-2.303c-5.268,0-9.557,4.286-9.557,9.554
	s4.289,9.554,9.557,9.554c3.799,0,6.801-1.941,8.216-5.247h-8.995v-8.064l17.56,0.024l0.131,0.617
	c0.916,4.347,0.183,10.741-3.528,15.315C35.634,40.988,31.132,42.91,25.322,42.91z"/>
</svg>
