<?xml version="1.0" encoding="UTF-8"?>
<svg id="Capa_1" data-name="Capa 1" xmlns="http://www.w3.org/2000/svg" xmlns:xlink="http://www.w3.org/1999/xlink" viewBox="0 0 250 200">
  <defs>
    <style>
      .cls-1 {
        fill: #fff;
      }

      .cls-1, .cls-2, .cls-3, .cls-4, .cls-5, .cls-6, .cls-7, .cls-8, .cls-9, .cls-10, .cls-11, .cls-12, .cls-13, .cls-14, .cls-15, .cls-16, .cls-17, .cls-18, .cls-19, .cls-20 {
        stroke-width: 0px;
      }

      .cls-1, .cls-3, .cls-6, .cls-10, .cls-11, .cls-12, .cls-14, .cls-19 {
        fill-rule: evenodd;
      }

      .cls-2 {
        fill: url(#Degradado_sin_nombre-10);
      }

      .cls-3 {
        fill: url(#Degradado_sin_nombre);
      }

      .cls-4 {
        fill: url(#Degradado_sin_nombre-2);
      }

      .cls-5 {
        fill: url(#Degradado_sin_nombre-6);
      }

      .cls-6 {
        fill: url(#Degradado_sin_nombre-9);
      }

      .cls-7 {
        fill: url(#Degradado_sin_nombre-18);
      }

      .cls-8 {
        fill: url(#Degradado_sin_nombre-17);
      }

      .cls-9 {
        fill: url(#Degradado_sin_nombre-4);
      }

      .cls-10 {
        fill: url(#Degradado_sin_nombre-5);
      }

      .cls-11 {
        fill: url(#Degradado_sin_nombre-3);
      }

      .cls-12 {
        fill: url(#Degradado_sin_nombre-8);
      }

      .cls-13 {
        fill: url(#Degradado_sin_nombre-13);
      }

      .cls-14 {
        fill: url(#Degradado_sin_nombre-16);
      }

      .cls-15 {
        fill: url(#Degradado_sin_nombre-19);
      }

      .cls-16 {
        fill: url(#Degradado_sin_nombre-14);
      }

      .cls-17 {
        fill: url(#Degradado_sin_nombre-15);
      }

      .cls-18 {
        fill: url(#Degradado_sin_nombre-11);
      }

      .cls-19 {
        fill: url(#Degradado_sin_nombre-7);
      }

      .cls-20 {
        fill: url(#Degradado_sin_nombre-12);
      }
    </style>
    <linearGradient id="Degradado_sin_nombre" data-name="Degradado sin nombre" x1="194.136" y1="-77.146" x2="-57.19" y2="124.562" gradientUnits="userSpaceOnUse">
      <stop offset="0" stop-color="#f0f"/>
      <stop offset="1" stop-color="aqua"/>
    </linearGradient>
    <linearGradient id="Degradado_sin_nombre-2" data-name="Degradado sin nombre" x1="190.088" y1="-82.19" x2="-61.238" y2="119.518" xlink:href="#Degradado_sin_nombre"/>
    <linearGradient id="Degradado_sin_nombre-3" data-name="Degradado sin nombre" x1="301.06" y1="56.081" x2="49.735" y2="257.788" xlink:href="#Degradado_sin_nombre"/>
    <linearGradient id="Degradado_sin_nombre-4" data-name="Degradado sin nombre" x1="295.926" y1="49.682" x2="44.6" y2="251.39" xlink:href="#Degradado_sin_nombre"/>
    <linearGradient id="Degradado_sin_nombre-5" data-name="Degradado sin nombre" x1="241.197" y1="-18.509" x2="-10.129" y2="183.199" xlink:href="#Degradado_sin_nombre"/>
    <linearGradient id="Degradado_sin_nombre-6" data-name="Degradado sin nombre" x1="236.014" y1="-24.967" x2="-15.312" y2="176.741" xlink:href="#Degradado_sin_nombre"/>
    <linearGradient id="Degradado_sin_nombre-7" data-name="Degradado sin nombre" x1="228.258" y1="-34.631" x2="-23.068" y2="167.077" xlink:href="#Degradado_sin_nombre"/>
    <linearGradient id="Degradado_sin_nombre-8" data-name="Degradado sin nombre" x1="261.241" y1="6.466" x2="9.916" y2="208.174" xlink:href="#Degradado_sin_nombre"/>
    <linearGradient id="Degradado_sin_nombre-9" data-name="Degradado sin nombre" x1="248.372" y1="-9.569" x2="-2.954" y2="192.139" xlink:href="#Degradado_sin_nombre"/>
    <linearGradient id="Degradado_sin_nombre-10" data-name="Degradado sin nombre" x1="258.803" y1="3.429" x2="7.478" y2="205.137" xlink:href="#Degradado_sin_nombre"/>
    <linearGradient id="Degradado_sin_nombre-11" data-name="Degradado sin nombre" x1="215.527" y1="-50.494" x2="-35.799" y2="151.214" xlink:href="#Degradado_sin_nombre"/>
    <linearGradient id="Degradado_sin_nombre-12" data-name="Degradado sin nombre" x1="278.76" y1="28.295" x2="27.435" y2="230.003" xlink:href="#Degradado_sin_nombre"/>
    <linearGradient id="Degradado_sin_nombre-13" data-name="Degradado sin nombre" x1="229.528" y1="-33.048" x2="-21.797" y2="168.66" xlink:href="#Degradado_sin_nombre"/>
    <linearGradient id="Degradado_sin_nombre-14" data-name="Degradado sin nombre" x1="270.4" y1="17.877" x2="19.074" y2="219.585" xlink:href="#Degradado_sin_nombre"/>
    <linearGradient id="Degradado_sin_nombre-15" data-name="Degradado sin nombre" x1="213.641" y1="-52.843" x2="-37.685" y2="148.864" xlink:href="#Degradado_sin_nombre"/>
    <linearGradient id="Degradado_sin_nombre-16" data-name="Degradado sin nombre" x1="283.334" y1="33.993" x2="32.008" y2="235.701" xlink:href="#Degradado_sin_nombre"/>
    <linearGradient id="Degradado_sin_nombre-17" data-name="Degradado sin nombre" x1="245.331" y1="-13.358" x2="-5.995" y2="188.35" xlink:href="#Degradado_sin_nombre"/>
    <linearGradient id="Degradado_sin_nombre-18" data-name="Degradado sin nombre" x1="235.003" y1="-26.226" x2="-16.322" y2="175.482" xlink:href="#Degradado_sin_nombre"/>
    <linearGradient id="Degradado_sin_nombre-19" data-name="Degradado sin nombre" x1="302.998" y1="58.495" x2="51.672" y2="260.203" xlink:href="#Degradado_sin_nombre"/>
  </defs>
  <g>
    <g>
      <path class="cls-3" d="M34.667,47.536c-.765-2.005.24-4.25,2.244-5.014l2.42-.923c2.005-.765,4.25.24,5.014,2.244l.923,2.42c.765,2.005-.24,4.25-2.244,5.014l-2.42.923c-2.005.765-4.25-.24-5.014-2.244l-.923-2.42ZM37.835,44.941c-.668.255-1.003,1.003-.748,1.671l.923,2.42c.255.668,1.003,1.003,1.671.748l2.42-.923c.668-.255,1.003-1.003.748-1.671l-.923-2.42c-.255-.668-1.003-1.003-1.671-.748l-2.42.923ZM63.703,36.456c-.765-2.005.24-4.25,2.244-5.014l2.42-.923c2.005-.765,4.25.24,5.014,2.244l.923,2.42c.765,2.005-.24,4.25-2.244,5.014l-2.42.923c-2.005.765-4.25-.24-5.014-2.244l-.923-2.42ZM66.871,33.861c-.668.255-1.003,1.003-.748,1.671l.923,2.42c.255.668,1.003,1.003,1.671.748l2.42-.923c.668-.255,1.003-1.003.748-1.671l-.923-2.42c-.255-.668-1.003-1.003-1.671-.748l-2.42.923ZM43.645,27.478c-.765-2.005.24-4.25,2.244-5.014l2.42-.923c2.005-.765,4.25.24,5.014,2.244l.923,2.42c.765,2.005-.24,4.25-2.244,5.014l-2.42.923c-2.005.765-4.25-.24-5.014-2.244l-.923-2.42ZM46.813,24.883c-.668.255-1.003,1.003-.748,1.671l.923,2.42c.255.668,1.003,1.003,1.671.748l2.42-.923c.668-.255,1.003-1.003.748-1.671l-.923-2.42c-.255-.668-1.003-1.003-1.671-.748l-2.42.923Z"/>
      <path class="cls-4" d="M43.645,27.478l-10.003,3.817c-1.11-.902-2.741-.734-3.643.376-.902,1.11-.734,2.741.376,3.643,1.11.902,2.741.734,3.643-.376.287-.353.476-.775.548-1.224l6.456-2.463c-2.365,3.157-3.55,7.041-3.35,10.98l1.66-.633c.3-.114.602-.19.906-.227.002-4.065,1.736-7.937,4.766-10.647-.178-.257-.323-.535-.435-.827l-.923-2.42ZM54.474,27.111c-.039-.31-.115-.614-.227-.906l-.923-2.42,10.003-3.817c.227-1.412,1.555-2.373,2.967-2.147,1.412.227,2.373,1.555,2.147,2.967s-1.555,2.373-2.967,2.147c-.449-.072-.871-.261-1.224-.548l-6.456,2.463c3.866.779,7.338,2.886,9.813,5.957l-1.66.633c-.298.114-.574.259-.827.435-2.71-3.03-6.582-4.763-10.647-4.766"/>
    </g>
    <g>
      <path class="cls-11" d="M145.509,142.599c1.65-2.776,5.237-3.69,8.014-2.04l3.351,1.991c2.776,1.65,3.69,5.237,2.04,8.014l-1.991,3.351c-1.65,2.776-5.237,3.69-8.014,2.04l-3.351-1.991c-2.776-1.65-3.69-5.237-2.04-8.014l1.991-3.351ZM151.532,143.91c-.925-.55-2.121-.245-2.671.68l-1.991,3.351c-.55.925-.245,2.121.68,2.671l3.351,1.991c.925.55,2.121.245,2.671-.68l1.991-3.351c.55-.925.245-2.121-.68-2.671l-3.351-1.991ZM185.725,166.493c1.65-2.776,5.237-3.69,8.014-2.04l3.351,1.991c2.776,1.65,3.69,5.237,2.04,8.014l-1.991,3.351c-1.65,2.776-5.237,3.69-8.014,2.04l-3.351-1.991c-2.776-1.65-3.69-5.237-2.04-8.014l1.991-3.351ZM191.748,167.804c-.925-.55-2.121-.245-2.671.68l-1.991,3.351c-.55.925-.245,2.121.68,2.671l3.351,1.991c.925.55,2.121.245,2.671-.68l1.991-3.351c.55-.925.245-2.121-.68-2.671l-3.351-1.991ZM177.564,134.438c1.65-2.776,5.237-3.69,8.014-2.04l3.351,1.991c2.776,1.65,3.69,5.237,2.04,8.014l-1.991,3.351c-1.65,2.776-5.237,3.69-8.014,2.04l-3.351-1.991c-2.776-1.65-3.69-5.237-2.04-8.014l1.991-3.351ZM183.587,135.749c-.925-.55-2.121-.245-2.671.68l-1.991,3.351c-.55.925-.245,2.121.68,2.671l3.351,1.991c.925.55,2.121.245,2.671-.68l1.991-3.351c.55-.925.245-2.121-.68-2.671l-3.351-1.991Z"/>
      <path class="cls-9" d="M177.564,134.438l-13.854-8.231c.027-2.153-1.696-3.92-3.849-3.947-2.153-.027-3.92,1.696-3.947,3.849-.027,2.153,1.696,3.92,3.849,3.947.684.009,1.359-.163,1.955-.498l8.941,5.312c-5.934.161-11.625,2.395-16.085,6.314l2.299,1.366c.416.247.787.533,1.114.857,4.798-3.798,10.986-5.373,17.016-4.332.137-.45.328-.881.569-1.285l1.991-3.351ZM188.121,146.868c.329-.336.617-.71.857-1.114l1.991-3.351,13.854,8.231c1.878-1.053,4.254-.384,5.307,1.493,1.053,1.878.384,4.254-1.493,5.307s-4.254.384-5.307-1.493c-.335-.597-.506-1.271-.498-1.955l-8.941-5.312c2.696,5.289,3.455,11.355,2.147,17.146l-2.299-1.366c-.413-.246-.842-.435-1.285-.569,1.041-6.03-.534-12.218-4.332-17.016"/>
    </g>
    <g>
      <path class="cls-10" d="M59.492,109.397c.227-1.897,1.948-3.251,3.845-3.024l2.29.274c1.897.227,3.251,1.948,3.024,3.845l-.274,2.29c-.227,1.897-1.948,3.251-3.845,3.024l-2.29-.274c-1.897-.227-3.251-1.948-3.024-3.845l.274-2.29ZM63.063,108.662c-.632-.076-1.206.376-1.282,1.008l-.274,2.29c-.076.632.376,1.206,1.008,1.282l2.29.274c.632.076,1.206-.376,1.282-1.008l.274-2.29c.076-.632-.376-1.206-1.008-1.282l-2.29-.274ZM86.969,112.682c.227-1.897,1.948-3.251,3.845-3.024l2.29.274c1.897.227,3.251,1.948,3.024,3.845l-.274,2.29c-.227,1.897-1.948,3.251-3.845,3.024l-2.29-.274c-1.897-.227-3.251-1.948-3.024-3.845l.274-2.29ZM90.541,111.947c-.632-.076-1.206.376-1.282,1.008l-.274,2.29c-.076.632.376,1.206,1.008,1.282l2.29.274c.632.076,1.206-.376,1.282-1.008l.274-2.29c.076-.632-.376-1.206-1.008-1.282l-2.29-.274ZM74.873,97.3c.227-1.897,1.948-3.251,3.845-3.024l2.29.274c1.897.227,3.251,1.948,3.024,3.845l-.274,2.29c-.227,1.897-1.948,3.251-3.845,3.024l-2.29-.274c-1.897-.227-3.251-1.948-3.024-3.845l.274-2.29ZM78.444,96.566c-.632-.076-1.206.376-1.282,1.008l-.274,2.29c-.076.632.376,1.206,1.008,1.282l2.29.274c.632.076,1.206-.376,1.282-1.008l.274-2.29c.076-.632-.376-1.206-1.008-1.282l-2.29-.274Z"/>
      <path class="cls-5" d="M74.873,97.3l-9.466-1.132c-.501-1.171-1.857-1.713-3.028-1.212-1.171.501-1.713,1.857-1.212,3.028.501,1.171,1.857,1.713,3.028,1.212.372-.159.696-.414.938-.738l6.109.73c-3.171,1.51-5.713,4.082-7.186,7.27l1.571.188c.284.034.553.099.808.196,1.685-3.204,4.654-5.539,8.165-6.421-.034-.276-.034-.555,0-.832l.274-2.29ZM83.562,101.493c.098-.26.164-.532.196-.808l.274-2.29,9.466,1.132c.763-1.02,2.209-1.227,3.228-.464,1.02.763,1.227,2.209.464,3.228s-2.209,1.227-3.228.464c-.324-.243-.579-.566-.738-.938l-6.109-.73c2.726,2.215,4.59,5.313,5.27,8.759l-1.571-.188c-.282-.034-.56-.034-.832,0-.882-3.511-3.217-6.48-6.421-8.165"/>
    </g>
    <path class="cls-19" d="M76.432,65.101c0-1.648,1.336-2.984,2.984-2.984h1.989c1.648,0,2.984,1.336,2.984,2.984h8.225c.549-.952,1.766-1.278,2.718-.728.952.549,1.278,1.766.728,2.718s-1.766,1.278-2.718.728c-.302-.175-.554-.426-.728-.728h-3.999c.357.358.678.759.963,1.204,1.269,1.974,1.775,4.683,1.775,7.749,0,3.965.511,6.152,1.419,7.361.708.947,1.781,1.434,3.555,1.56.017-1.636,1.348-2.952,2.984-2.952h1.989c1.648,0,2.984,1.336,2.984,2.984v1.989c0,1.648-1.336,2.984-2.984,2.984h-1.989c-1.648,0-2.984-1.336-2.984-2.984h-8.225c-.549.952-1.766,1.278-2.718.728-.952-.549-1.278-1.766-.728-2.718.549-.952,1.766-1.278,2.718-.728.302.175.554.426.728.728h3.404c-.115-.128-.225-.261-.328-.398-1.331-1.777-1.814-4.562-1.814-8.555,0-2.905-.489-5.167-1.458-6.675-.776-1.204-1.894-1.989-3.515-2.212-.036,1.622-1.361,2.919-2.984,2.919h-1.989c-1.648,0-2.984-1.336-2.984-2.984v-1.989ZM79.416,64.107c-.549,0-.995.445-.995.995v1.989c0,.549.445.995.995.995h1.989c.549,0,.995-.445.995-.995v-1.989c0-.549-.445-.995-.995-.995h-1.989ZM99.311,84.002c-.549,0-.995.445-.995.995v1.989c0,.549.445.995.995.995h1.989c.549,0,.995-.445.995-.995v-1.989c0-.549-.445-.995-.995-.995h-1.989Z"/>
    <path class="cls-12" d="M121.032,107.373c.713-.7,1.859-.69,2.559.024l.845.861c.7.713.69,1.859-.024,2.559l3.494,3.559c.645-.167,1.303.221,1.47.867.167.645-.221,1.303-.867,1.47s-1.303-.221-1.47-.867c-.053-.205-.051-.42.006-.624l-1.699-1.73c-.003.307-.041.616-.112.928-.315,1.388-1.273,2.757-2.599,4.06-1.716,1.684-2.445,2.834-2.583,3.741-.109.709.136,1.38.835,2.201.715-.687,1.85-.671,2.545.037l.845.861c.7.713.69,1.859-.024,2.559l-.861.845c-.713.7-1.859.69-2.559-.024l-.845-.861c-.7-.713-.69-1.859.024-2.559l-3.494-3.559c-.645.167-1.303-.221-1.47-.867-.167-.645.221-1.303.867-1.47.645-.167,1.303.221,1.47.867.053.205.051.42-.006.624l1.446,1.473c.006-.104.017-.208.033-.311.203-1.331,1.203-2.723,2.931-4.419,1.257-1.234,2.028-2.407,2.269-3.466.191-.847.056-1.665-.536-2.461-.717.674-1.841.651-2.531-.051l-.845-.861c-.7-.713-.69-1.859.024-2.559l.861-.845ZM122.73,108.242c-.233-.238-.615-.241-.853-.008l-.861.845c-.238.233-.241.615-.008.853l.845.861c.233.238.615.241.853.008l.861-.845c.238-.233.241-.615.008-.853l-.845-.861ZM122.573,125.301c-.233-.238-.615-.241-.853-.008l-.861.845c-.238.233-.241.615-.008.853l.845.861c.233.238.615.241.853.008l.861-.845c.238-.233.241-.615.008-.853l-.845-.861Z"/>
    <path class="cls-6" d="M175.35,49.14c-1.492-.339-2.426-1.824-2.087-3.315l.409-1.801c.339-1.492,1.824-2.426,3.315-2.087l1.693-7.445c-.748-.693-.793-1.862-.1-2.61.693-.748,1.862-.793,2.61-.1s.793,1.862.1,2.61c-.22.238-.499.413-.809.509l-.823,3.62c.398-.249.827-.457,1.288-.624,2.048-.743,4.604-.642,7.379-.011,3.589.816,5.673.803,6.955.231,1.003-.446,1.665-1.316,2.144-2.897-1.477-.352-2.395-1.828-2.058-3.309l.409-1.801c.339-1.492,1.824-2.426,3.315-2.087l1.801.409c1.492.339,2.426,1.824,2.087,3.315l-.409,1.801c-.339,1.492-1.824,2.426-3.315,2.087l-1.693,7.445c.748.693.793,1.862.1,2.61-.693.748-1.862.793-2.61.1-.748-.693-.793-1.862-.1-2.61.22-.238.499-.413.809-.509l.701-3.081c-.139.078-.282.15-.428.215-1.882.839-4.503.703-8.117-.118-2.629-.598-4.777-.62-6.342-.054-1.249.455-2.191,1.305-2.726,2.727,1.461.366,2.362,1.833,2.028,3.302l-.409,1.801c-.339,1.492-1.824,2.426-3.315,2.087l-1.801-.409ZM175.064,46.234c-.113.497.198.992.696,1.105l1.801.409c.497.113.992-.198,1.105-.696l.409-1.801c.113-.497-.198-.992-.696-1.105l-1.801-.409c-.497-.113-.992.198-1.105.696l-.409,1.801ZM197.167,32.32c-.113.497.198.992.696,1.105l1.801.409c.497.113.992-.198,1.105-.696l.409-1.801c.113-.497-.198-.992-.696-1.105l-1.801-.409c-.497-.113-.992.198-1.105.696l-.409,1.801Z"/>
    <path class="cls-2" d="M50.889,156.609l-1.278-2.98-7.45,3.195,3.195,7.45,2.98-1.278,3.835,8.94-2.98,1.278,3.195,7.45,7.45-3.195-1.278-2.98,8.94-3.835,1.278,2.98,7.45-3.195-3.195-7.45-2.98,1.278-3.835-8.94,2.98-1.278-3.195-7.45-7.45,3.195,1.278,2.98-8.94,3.835ZM60.467,154.264l1.278,2.98,2.98-1.278,3.835,8.94-2.98,1.278,1.278,2.98-8.94,3.835-1.278-2.98-2.98,1.278-3.835-8.94,2.98-1.278-1.278-2.98,8.94-3.835ZM60.679,150.645l4.47-1.917,1.917,4.47-4.47,1.917-1.917-4.47ZM72.179,165.117l1.917,4.47-4.47,1.917-1.917-4.47,4.47-1.917ZM57.707,176.617l-4.47,1.917-1.917-4.47,4.47-1.917,1.917,4.47ZM46.207,162.145l-1.917-4.47,4.47-1.917,1.917,4.47-4.47,1.917Z"/>
    <path class="cls-18" d="M98.059,33.65l-.975-2.2-5.5,2.438,2.438,5.5,2.2-.975,2.926,6.599-2.2.975,2.438,5.5,5.5-2.438-.975-2.2,6.599-2.926.975,2.2,5.5-2.438-2.438-5.5-2.2.975-2.926-6.599,2.2-.975-2.438-5.5-5.5,2.438.975,2.2-6.599,2.926ZM105.146,31.824l.975,2.2,2.2-.975,2.926,6.599-2.2.975.975,2.2-6.599,2.926-.975-2.2-2.2.975-2.926-6.599,2.2-.975-.975-2.2,6.599-2.926ZM105.271,29.136l3.3-1.463,1.463,3.3-3.3,1.463-1.463-3.3ZM113.935,39.772l1.463,3.3-3.3,1.463-1.463-3.3,3.3-1.463ZM103.299,48.436l-3.3,1.463-1.463-3.3,3.3-1.463,1.463,3.3ZM94.635,37.8l-1.463-3.3,3.3-1.463,1.463,3.3-3.3,1.463Z"/>
    <path class="cls-20" d="M188.212,88.453l.465-3.077-7.693-1.163-1.163,7.693,3.077.465-1.396,9.231-3.077-.465-1.163,7.693,7.693,1.163.465-3.077,9.231,1.396-.465,3.077,7.693,1.163,1.163-7.693-3.077-.465,1.396-9.231,3.077.465,1.163-7.693-7.693-1.163-.465,3.077-9.231-1.396ZM197.211,91.387l-.465,3.077,3.077.465-1.396,9.231-3.077-.465-.465,3.077-9.231-1.396.465-3.077-3.077-.465,1.396-9.231,3.077.465.465-3.077,9.231,1.396ZM199.215,88.543l4.616.698-.698,4.616-4.616-.698.698-4.616ZM201.272,106.165l-.698,4.616-4.616-.698.698-4.616,4.616.698ZM183.65,108.222l-4.616-.698.698-4.616,4.616.698-.698,4.616ZM181.593,90.6l.698-4.616,4.616.698-.698,4.616-4.616-.698Z"/>
    <path class="cls-13" d="M149.151,19.041c0-1.105.895-2,2-2h8c1.105,0,2,.895,2,2v2h2c1.105,0,2,.895,2,2v8c0,1.105-.895,2-2,2h-8c-1.105,0-2-.895-2-2v-2h-2c-1.105,0-2-.895-2-2v-8ZM154.151,29.041v2c0,.552.448,1,1,1h8c.552,0,1-.448,1-1v-8c0-.552-.448-1-1-1h-2v5c0,1.105-.895,2-2,2h-5ZM160.151,21.041v-2c0-.552-.448-1-1-1h-8c-.552,0-1,.448-1,1v8c0,.552.448,1,1,1h2v-5c0-1.105.895-2,2-2h5Z"/>
    <path class="cls-16" d="M193.085,64.231c-.977-1.647-.435-3.774,1.212-4.751l11.925-7.079c1.647-.977,3.774-.435,4.751,1.212l1.77,2.981,2.981-1.77c1.647-.977,3.774-.435,4.751,1.212l7.079,11.925c.977,1.647.435,3.774-1.212,4.751l-11.925,7.079c-1.647.977-3.774.435-4.751-1.212l-1.77-2.981-2.981,1.77c-1.647.977-3.774.435-4.751-1.212l-7.079-11.925ZM209.387,74.714l1.77,2.981c.489.823,1.552,1.094,2.376.606l11.925-7.079c.823-.489,1.094-1.552.606-2.376l-7.079-11.925c-.489-.823-1.552-1.094-2.376-.606l-2.981,1.77,4.424,7.453c.977,1.647.435,3.774-1.212,4.751l-7.453,4.424ZM211.252,57.479l-1.77-2.981c-.489-.823-1.552-1.094-2.376-.606l-11.925,7.079c-.823.489-1.094,1.552-.606,2.376l7.079,11.925c.489.823,1.552,1.094,2.376.606l2.981-1.77-4.424-7.453c-.977-1.647-.435-3.774,1.212-4.751l7.453-4.424Z"/>
    <path class="cls-17" d="M57.752,62.481c2.073-.339,4.028,1.067,4.367,3.14l2.455,15.014c.339,2.073-1.067,4.028-3.14,4.367l-3.754.614.614,3.754c.339,2.073-1.067,4.028-3.14,4.367l-15.014,2.455c-2.073.339-4.028-1.067-4.367-3.14l-2.455-15.014c-.339-2.073,1.067-4.028,3.14-4.367l3.754-.614-.614-3.754c-.339-2.073,1.067-4.028,3.14-4.367l15.014-2.455ZM40.519,74.933l-3.754.614c-1.037.169-1.739,1.147-1.57,2.184l2.455,15.014c.169,1.037,1.147,1.739,2.184,1.57l15.014-2.455c1.037-.169,1.739-1.147,1.57-2.184l-.614-3.754-9.384,1.534c-2.073.339-4.028-1.067-4.367-3.14l-1.534-9.384ZM57.374,83.739l3.754-.614c1.037-.169,1.739-1.147,1.57-2.184l-2.455-15.014c-.169-1.037-1.147-1.739-2.184-1.57l-15.014,2.455c-1.037.169-1.739,1.147-1.57,2.184l.614,3.754,9.384-1.534c2.073-.339,4.028,1.067,4.367,3.14l1.534,9.384Z"/>
    <path class="cls-14" d="M136.529,170.607c.366,1.485-.541,2.987-2.026,3.353l-1.793.442c-1.485.366-2.987-.541-3.353-2.026l-7.413,1.828c-.284.98-1.308,1.544-2.288,1.26-.98-.284-1.544-1.308-1.26-2.288s1.308-1.544,2.288-1.26c.311.09.594.261.818.494l3.604-.889c-.401-.243-.78-.534-1.135-.871-1.583-1.497-2.64-3.827-3.322-6.59-.881-3.574-1.828-5.431-2.914-6.319-.849-.696-1.924-.897-3.551-.616.348,1.478-.559,2.961-2.033,3.324l-1.793.442c-1.485.366-2.987-.541-3.353-2.026l-.442-1.793c-.366-1.485.541-2.987,2.026-3.353l1.793-.442c1.485-.366,2.987.541,3.353,2.026l7.413-1.828c.284-.98,1.308-1.544,2.288-1.26.98.284,1.544,1.308,1.26,2.288-.284.98-1.308,1.544-2.288,1.26-.311-.09-.594-.261-.818-.494l-3.068.757c.132.09.26.185.384.286,1.594,1.305,2.649,3.708,3.537,7.307.646,2.618,1.589,4.548,2.798,5.692.967.912,2.149,1.372,3.66,1.213-.328-1.47.578-2.933,2.041-3.294l1.793-.442c1.485-.366,2.987.541,3.353,2.026l.442,1.793ZM134.061,172.167c.495-.122.798-.622.675-1.118l-.442-1.793c-.122-.495-.622-.798-1.118-.675l-1.793.442c-.495.122-.798.622-.675,1.118l.442,1.793c.122.495.622.798,1.118.675l1.793-.442ZM111.708,158.658c.495-.122.798-.622.675-1.118l-.442-1.793c-.122-.495-.622-.798-1.118-.675l-1.793.442c-.495.122-.798.622-.675,1.118l.442,1.793c.122.495.622.798,1.118.675l1.793-.442Z"/>
    <path class="cls-8" d="M134.254,64.874c-1.017-1.503-2.058-2.771-2.997-3.648-.467-.456-.998-.842-1.576-1.143-.482-.231-1.243-.455-1.958-.044-.815.473-.948,1.399-.955,1.989-.007.675.142,1.474.384,2.318.435,1.525,1.234,3.392,2.298,5.333l-7.273,7.273c-.615.615-.597,1.456-.484,2.038.122.628.415,1.317.799,2.005.773,1.392,2.043,3.022,3.61,4.591,1.57,1.57,3.199,2.837,4.591,3.61.688.384,1.377.677,2.005.799.582.111,1.421.131,2.038-.484l12.466-12.466c.262.571.204,1.137.111,2.085-.067.648-.151,1.476-.162,2.611v.273h.007c.102,1.222,1.176,2.129,2.398,2.027,1.08-.091,1.936-.947,2.027-2.027h.007v-.127c.002-.087,0-.173-.009-.26-.122-2.775-1.554-6.079-4.13-7.757-.137-.33-.293-.652-.468-.964-.775-1.39-2.043-3.019-3.612-4.589s-3.199-2.84-4.591-3.612c-.688-.382-1.377-.675-2.005-.799-.582-.111-1.421-.129-2.038.486l-.482.482ZM129.743,62.847c.846.79,1.874,2.047,2.911,3.623l-1.563,1.565c-.848-1.614-1.465-3.113-1.805-4.303-.149-.487-.246-.987-.291-1.494.203.133.452.336.748.608M130.618,71.65c1.199,1.892,2.458,3.479,3.568,4.514.449.418,1.152.393,1.57-.056.418-.449.393-1.152-.056-1.57-1.006-.937-2.258-2.522-3.472-4.5l2.416-2.416c.12.268.255.538.406.81.775,1.392,2.043,3.022,3.612,4.591,1.567,1.57,3.197,2.837,4.591,3.61.271.152.541.288.81.406l-10.792,10.794-.151-.022c-.304-.06-.759-.231-1.35-.559-1.163-.648-2.633-1.776-4.098-3.241s-2.593-2.931-3.241-4.098c-.326-.588-.5-1.043-.557-1.348l-.022-.151,6.767-6.765ZM136.99,67.354c-.231-.391-.41-.809-.535-1.246.3.073.719.244,1.248.535,1.163.648,2.633,1.776,4.098,3.241.999.999,1.843,2,2.482,2.908-.795-.054-1.593.014-2.367.202-.586-.487-1.149-1.001-1.687-1.541-1.465-1.465-2.591-2.935-3.237-4.101h-.002Z"/>
    <path class="cls-7" d="M31.463,123.516c-1.81.124-3.43.388-4.66.76-.629.174-1.229.44-1.78.789-.442.301-1.018.847-1.022,1.671,0,.942.733,1.522,1.241,1.825.58.345,1.346.618,2.197.832,1.537.39,3.553.636,5.766.691l2.636,9.942c.223.841.959,1.248,1.519,1.442.605.21,1.347.302,2.135.316,1.592.031,3.639-.249,5.783-.816,2.146-.569,4.06-1.341,5.428-2.157.678-.402,1.277-.85,1.698-1.332.388-.447.827-1.163.605-2.005l-4.519-17.041c.625.06,1.086.394,1.858.951.527.383,1.201.872,2.176,1.451l.236.137.003-.006c1.108.525,2.432.052,2.957-1.056.464-.979.153-2.15-.735-2.771l.003-.006-.109-.064c-.074-.045-.15-.086-.229-.123-2.461-1.288-6.037-1.709-8.782-.325-.354-.048-.711-.074-1.068-.079-1.591-.028-3.637.25-5.783.819s-4.062,1.34-5.43,2.156c-.676.403-1.275.851-1.698,1.332-.388.447-.825,1.164-.603,2.007l.175.659ZM27.444,126.399c1.108-.334,2.711-.592,4.595-.697l.568,2.138c-1.822-.077-3.428-.296-4.627-.6-.495-.116-.977-.283-1.438-.499.217-.108.518-.222.902-.341M35.496,130.064c2.238-.087,4.243-.378,5.695-.818.587-.178.918-.798.74-1.385-.178-.587-.798-.918-1.385-.74-1.315.399-3.315.686-5.635.742l-.876-3.302c.292.031.593.049.905.056,1.593.029,3.639-.249,5.784-.818,2.145-.567,4.059-1.34,5.428-2.157.268-.158.521-.323.758-.497l3.914,14.754-.095.119c-.205.233-.581.541-1.162.886-1.145.68-2.858,1.385-4.861,1.916s-3.837.77-5.172.745c-.673-.013-1.153-.092-1.445-.195l-.142-.057-2.451-9.249ZM34.981,122.396c-.454.003-.906-.052-1.346-.163.214-.222.572-.499,1.089-.81,1.145-.68,2.858-1.385,4.861-1.916,1.366-.362,2.655-.589,3.762-.686-.446.66-.788,1.384-1.014,2.148-.716.262-1.443.491-2.18.685-2.003.531-3.839.766-5.172.74v.002Z"/>
    <path class="cls-15" d="M224.56,116.22c-.245-.836-.99-1.224-1.553-1.407-.611-.193-1.355-.267-2.142-.264-1.592.008-3.632.337-5.763.959s-4.026,1.44-5.374,2.286c-.304.189-.596.396-.874.619-3.065.233-5.91,2.441-7.352,4.815-.049.072-.093.146-.133.223l-.061.111.006.003c-.44.99-.101,2.153.802,2.752,1.022.678,2.4.398,3.077-.624l.006.003.131-.239c.536-1,.86-1.767,1.114-2.367.374-.876.596-1.4,1.1-1.774l4.934,16.926c.245.836.991,1.222,1.554,1.405.61.195,1.354.269,2.142.264,1.592-.008,3.631-.336,5.762-.957,2.129-.622,4.026-1.44,5.373-2.289.668-.419,1.256-.881,1.665-1.373.379-.456.799-1.185.556-2.02l-2.879-9.875c1.866-1.19,3.464-2.442,4.58-3.57.618-.623,1.133-1.252,1.452-1.847.278-.521.607-1.397.12-2.203-.429-.704-1.205-.874-1.738-.903-.652-.014-1.303.069-1.932.244-1.245.317-2.768.928-4.382,1.757l-.191-.654ZM229.681,117.266c.391-.096.707-.154.949-.173-.283.423-.609.815-.974,1.17-.87.88-2.132,1.897-3.652,2.904l-.618-2.124c1.667-.883,3.173-1.491,4.295-1.777M227.359,133.749l-.092.122c-.197.239-.568.555-1.137.914-1.13.712-2.824,1.454-4.813,2.034s-3.821.862-5.152.871c-.676.004-1.157-.065-1.453-.159l-.143-.053-4.27-14.655c.293.026.595.037.906.034,1.594-.007,3.632-.334,5.762-.957,2.131-.621,4.026-1.44,5.375-2.288.263-.166.512-.338.746-.515l.956,3.28c-2.016,1.15-3.876,1.938-5.209,2.275-.595.151-.954.755-.804,1.349.151.595.755.954,1.349.804,1.471-.373,3.338-1.159,5.299-2.241l2.679,9.186ZM221.158,117.731c-1.127.711-2.821,1.458-4.81,2.038-.731.214-1.472.394-2.22.539-.588-.537-1.255-.981-1.978-1.315.997-.489,2.219-.961,3.575-1.356,1.989-.58,3.821-.862,5.152-.871.603,0,1.053.051,1.351.131-.319.323-.678.603-1.068.835h-.002Z"/>
  </g>
  <g>
    <path class="cls-1" d="M76.784,148.738l44.934-36.761c4.802,0,8.695-3.893,8.695-8.695s-3.893-8.695-8.695-8.695-8.695,3.893-8.695,8.695l-36.761,44.934-.226.748.748-.226Z"/>
    <path class="cls-1" d="M144.724,39.341c1.696-1.7,4.448-1.703,6.148-.008.003.003.005.005.008.008l34.779,34.779c1.7,1.696,1.703,4.448.008,6.148-.003.003-.005.005-.008.008l-16.537,16.537-7.208,28.805c-1.115,4.462-4.498,8.007-8.903,9.329l-89.946,26.988,26.988-89.955c1.323-4.4,4.864-7.778,9.321-8.895l28.805-7.199,16.546-16.546ZM129.074,64.625l-27.588,6.895c-1.49.372-2.673,1.502-3.113,2.974l-22.345,74.47,74.487-22.345c1.462-.443,2.585-1.622,2.956-3.104l6.904-27.597-31.301-31.301v.009Z"/>
  </g>
</svg>