<?xml version="1.0" encoding="UTF-8"?><svg id="Capa_1" xmlns="http://www.w3.org/2000/svg" viewBox="0 0 188.836 193.507"><defs><style>.cls-1{fill:aqua;}.cls-1,.cls-2,.cls-3{stroke-width:0px;}.cls-2{fill:#f0f;}.cls-3{fill:#fff;}</style></defs><path class="cls-2" d="M51.294,88.655c0,21.731,17.677,39.409,39.409,39.409s39.409-17.678,39.409-39.409-17.678-39.409-39.409-39.409-39.409,17.678-39.409,39.409ZM90.703,69.044c10.814,0,19.611,8.797,19.611,19.611s-8.797,19.611-19.611,19.611-19.611-8.797-19.611-19.611,8.797-19.611,19.611-19.611Z"/><path class="cls-2" d="M31.727,60.494l.539.388.016.011,13.573,9.773,15.425-21.422-13.005-9.364-.024-.018-.556-.4c11.515-10.078,26.539-16.24,43.007-16.24s31.416,6.128,42.919,16.16l3.138-2.26,13.26-9.547h.001c-15.358-14.919-36.266-24.152-59.317-24.152S46.663,12.689,31.297,27.656h0l-3.091-2.225-12.781-9.203L0,37.65l12.781,9.203,2.652,1.909,13.585,9.782,2.709,1.95ZM16.46,43.109l-8.553-6.159,9.36-12.999,8.553,6.158,1.875,1.35,14.302,10.298,1.844,1.327.565.407.024.018,8.941,6.438-9.36,12.999-9.274-6.677-.019-.014-.55-.396-1.532-1.103-14.561-10.484-1.616-1.163Z"/><path class="cls-2" d="M165.922,48.654l2.501-1.801,12.78-9.203-15.425-21.422-12.78,9.203-2.977,2.144-13.26,9.547-3.138,2.26-.559.402-.024.018-13.115,9.443,15.425,21.422,13.725-9.883.016-.011.537-.387c4.13,8.571,6.513,18.135,6.513,28.268,0,31.561-22.462,57.974-52.238,64.097v-15.749h-26.398v15.75c-29.775-6.123-52.237-32.537-52.237-64.097,0-10.091,2.363-19.617,6.46-28.161l-2.709-1.95-13.585-9.782h0c-6.34,11.912-9.964,25.481-9.964,39.892,0,42.499,31.298,77.728,72.035,84.106v20.746h26.398v-20.747c40.737-6.377,72.036-41.607,72.036-84.106,0-14.453-3.642-28.062-10.016-40h0ZM98.713,173.483h0v14.017h-16.019v-44.49h16.019v30.473ZM148.566,54.755l-1.391,1.001-.547.394-.019.014-9.418,6.781-9.36-12.999,9.062-6.525.024-.018.568-.409,1.721-1.239,14.425-10.386,1.752-1.262,8.553-6.158,9.36,12.999-8.553,6.159h0s-1.475,1.061-1.475,1.061l-14.702,10.586Z"/><path class="cls-1" d="M54.193,85.231c0,21.731,17.677,39.409,39.409,39.409s39.409-17.678,39.409-39.409-17.678-39.409-39.409-39.409-39.409,17.678-39.409,39.409ZM93.602,65.62c10.814,0,19.611,8.797,19.611,19.611s-8.797,19.611-19.611,19.611-19.611-8.797-19.611-19.611,8.797-19.611,19.611-19.611Z"/><path class="cls-1" d="M34.626,57.07l.539.388.016.011,13.573,9.773,15.425-21.422-13.005-9.364-.024-.018-.556-.4c11.515-10.078,26.539-16.24,43.007-16.24s31.416,6.128,42.919,16.16l3.138-2.26,13.26-9.547h.001C137.561,9.233,116.652,0,93.602,0s-44.04,9.265-59.406,24.232h0l-3.091-2.225-12.781-9.203L2.899,34.226l12.781,9.203,2.652,1.909,13.585,9.782,2.709,1.95ZM19.358,39.684l-8.553-6.159,9.36-12.999,8.553,6.158,1.875,1.35,14.302,10.298,1.844,1.327.565.407.024.018,8.941,6.438-9.36,12.999-9.274-6.677-.019-.014-.55-.396-1.532-1.103-14.561-10.484-1.616-1.163Z"/><path class="cls-1" d="M168.821,45.23l2.501-1.801,12.78-9.203-15.425-21.422-12.78,9.203-2.977,2.144-13.26,9.547-3.138,2.26-.559.402-.024.018-13.115,9.443,15.425,21.422,13.725-9.883.016-.011.537-.387c4.13,8.571,6.513,18.135,6.513,28.268,0,31.561-22.462,57.974-52.238,64.097v-15.749h-26.398v15.75c-29.775-6.123-52.237-32.537-52.237-64.097,0-10.091,2.363-19.617,6.46-28.161l-2.709-1.95-13.585-9.782h0c-6.34,11.912-9.964,25.481-9.964,39.892,0,42.499,31.298,77.728,72.035,84.106v20.746h26.398v-20.747c40.737-6.377,72.036-41.607,72.036-84.106,0-14.453-3.642-28.062-10.016-40h0ZM101.612,170.059h0v14.017h-16.019v-44.49h16.019v30.473ZM151.465,51.331l-1.391,1.001-.547.394-.019.014-9.418,6.781-9.36-12.999,9.062-6.525.024-.018.568-.409,1.721-1.239,14.425-10.386,1.752-1.262,8.553-6.158,9.36,12.999-8.553,6.159h0s-1.475,1.061-1.475,1.061l-14.702,10.586Z"/><path class="cls-3" d="M58.927,85.253c0,21.731,17.677,39.409,39.409,39.409s39.409-17.678,39.409-39.409-17.678-39.409-39.409-39.409-39.409,17.678-39.409,39.409ZM98.336,65.642c10.814,0,19.611,8.797,19.611,19.611s-8.797,19.611-19.611,19.611-19.611-8.797-19.611-19.611,8.797-19.611,19.611-19.611Z"/><path class="cls-3" d="M39.36,57.092l.539.388.016.011,13.573,9.773,15.425-21.422-13.005-9.364-.024-.018-.556-.4c11.515-10.078,26.539-16.24,43.007-16.24s31.416,6.128,42.919,16.16l3.138-2.26,13.26-9.547h.001C142.295,9.255,121.387.022,98.336.022s-44.04,9.265-59.406,24.232h0l-3.091-2.225-12.781-9.203-15.425,21.422,12.781,9.203,2.652,1.909,13.585,9.782,2.709,1.95ZM24.093,39.706l-8.553-6.159,9.36-12.999,8.553,6.158,1.875,1.35,14.302,10.298,1.844,1.327.565.407.024.018,8.941,6.438-9.36,12.999-9.274-6.677-.019-.014-.55-.396-1.532-1.103-14.561-10.484-1.616-1.163Z"/><path class="cls-3" d="M173.555,45.252l2.501-1.801,12.78-9.203-15.425-21.422-12.78,9.203-2.977,2.144-13.26,9.547-3.138,2.26-.559.402-.024.018-13.115,9.443,15.425,21.422,13.725-9.883.016-.011.537-.387c4.13,8.571,6.513,18.135,6.513,28.268,0,31.561-22.462,57.974-52.238,64.097v-15.749h-26.398v15.75c-29.775-6.123-52.237-32.537-52.237-64.097,0-10.091,2.363-19.617,6.46-28.161l-2.709-1.95-13.585-9.782h0c-6.34,11.912-9.964,25.481-9.964,39.892,0,42.499,31.298,77.728,72.035,84.106v20.746h26.398v-20.747c40.737-6.377,72.036-41.607,72.036-84.106,0-14.453-3.642-28.062-10.016-40h0ZM106.346,170.081h0v14.017h-16.019v-44.49h16.019v30.473ZM156.199,51.353l-1.391,1.001-.547.394-.019.014-9.418,6.781-9.36-12.999,9.062-6.525.024-.018.568-.409,1.721-1.239,14.425-10.386,1.752-1.262,8.553-6.158,9.36,12.999-8.553,6.159h0s-1.475,1.061-1.475,1.061l-14.702,10.586Z"/></svg>