<?xml version="1.0" encoding="utf-8"?>
<!-- Generator: Adobe Illustrator 28.3.0, SVG Export Plug-In . SVG Version: 6.00 Build 0)  -->
<!DOCTYPE svg PUBLIC "-//W3C//DTD SVG 1.1//EN" "http://www.w3.org/Graphics/SVG/1.1/DTD/svg11.dtd" [
	<!ENTITY ns_extend "http://ns.adobe.com/Extensibility/1.0/">
	<!ENTITY ns_ai "http://ns.adobe.com/AdobeIllustrator/10.0/">
	<!ENTITY ns_graphs "http://ns.adobe.com/Graphs/1.0/">
	<!ENTITY ns_vars "http://ns.adobe.com/Variables/1.0/">
	<!ENTITY ns_imrep "http://ns.adobe.com/ImageReplacement/1.0/">
	<!ENTITY ns_sfw "http://ns.adobe.com/SaveForWeb/1.0/">
	<!ENTITY ns_custom "http://ns.adobe.com/GenericCustomNamespace/1.0/">
	<!ENTITY ns_adobe_xpath "http://ns.adobe.com/XPath/1.0/">
]>
<svg version="1.1" id="Capa_1" xmlns:x="&ns_extend;" xmlns:i="&ns_ai;" xmlns:graph="&ns_graphs;"
	 xmlns="http://www.w3.org/2000/svg" xmlns:xlink="http://www.w3.org/1999/xlink" x="0px" y="0px" viewBox="0 0 339.2 99.2"
	 style="enable-background:new 0 0 339.2 99.2;" xml:space="preserve">
<style type="text/css">
	.st0{fill:#FF00FF;}
	.st1{fill:#00FFFF;}
	.st2{fill:#FFFFFF;}
</style>
<metadata>
	<sfw  xmlns="&ns_sfw;">
		<slices></slices>
		<sliceSourceBounds  bottomLeftOrigin="true" height="203.9" width="339.2" x="0" y="-104.7"></sliceSourceBounds>
	</sfw>
</metadata>
<g>
	<path class="st0" d="M187.6,69.9v19.3l0,0H201V69.9H187.6z"/>
	<path class="st1" d="M10.3,8.7l3,6.8h9.2L16,0.4c-0.2-0.2-0.3-0.3-0.5-0.3h-15c-0.1,0-0.2,0.1-0.3,0.2S0,0.5,0,0.6v14.9h10.3V8.7z"
		/>
	<rect x="49.2" y="15.5" class="st1" width="10.3" height="14.8"/>
	<polygon class="st1" points="37,15.5 30.8,30 24.5,15.5 15.3,15.5 21.7,30.3 39.8,30.3 46.3,15.5 	"/>
	<rect x="2" y="15.5" class="st1" width="10.3" height="14.8"/>
	<path class="st1" d="M47.2,8.7v6.8h10.3V0.6c0-0.1,0-0.3-0.1-0.4c-0.1,0-0.2-0.1-0.3-0.1h-15c-0.1,0-0.2,0-0.3,0.1
		s-0.1,0.1-0.2,0.2L35,15.5h9.2L47.2,8.7z"/>
	<path class="st1" d="M0,37.4c0,0.3,0.2,0.5,0.5,0.5h9.3c0.1,0,0.2-0.1,0.3-0.2c0.1-0.1,0.1-0.2,0.1-0.4v-7.1H0V37.4z"/>
	<path class="st1" d="M84.4,7.4l3.9,8.1h10.2L91.1,0.4c0-0.1-0.1-0.1-0.2-0.2s-0.1-0.1-0.2-0.1H78.1c-0.2,0-0.3,0.1-0.5,0.3
		l-7.3,15.1h10.2L84.4,7.4z"/>
	<polygon class="st1" points="91.3,15.5 95.8,24.7 79,24.7 83.5,15.5 73.3,15.5 66.1,30.3 76.6,30.3 76.7,30.3 98.1,30.3 98.1,30.3 
		108.7,30.3 101.5,15.5 	"/>
	<path class="st1" d="M154.5,37.8c0.1,0.1,0.2,0.2,0.4,0.2h10.6c0.1,0,0.2-0.1,0.2-0.2c0-0.1,0-0.2-0.1-0.3l-7.2-7.2H147L154.5,37.8
		z"/>
	<path class="st1" d="M154.5,24.9c1.7,0,3.1-0.6,4.2-1.7c1.2-1.2,1.7-2.6,1.7-4.2v-3.5H150v1.7c0,0.5-0.2,1-0.6,1.4
		c-0.4,0.4-0.8,0.6-1.4,0.6h-20.6v-3.7h-10.3v14.8h10.3v-5.4h11l5.4,5.4h11.4l-5.4-5.4H154.5z"/>
	<path class="st1" d="M178.6,0.6c0-0.1,0-0.3-0.1-0.4S178.3,0,178.2,0h-9.3c-0.1,0-0.3,0.1-0.4,0.2c-0.1,0.1-0.2,0.2-0.2,0.4v14.9
		h10.3V0.6z"/>
	<path class="st1" d="M226.1,37.6c0.1,0.2,0.3,0.3,0.5,0.3h9.7c0.1,0,0.1,0,0.2-0.1c0.1-0.1,0.1-0.2,0-0.2l-3.5-7.3h-10.6
		L226.1,37.6z"/>
	<polygon class="st1" points="212.5,15.5 216.9,24.7 200.2,24.7 204.7,15.5 194.5,15.5 187.3,30.3 197.8,30.3 197.8,30.3 
		219.3,30.3 219.3,30.3 229.9,30.3 222.7,15.5 	"/>
	<path class="st1" d="M274.9,37.7c0,0.1,0.2,0.2,0.4,0.2h10.5c0.1,0,0.2-0.1,0.3-0.2c0.1-0.1,0.1-0.2,0.1-0.4v-7.1h-17.7L274.9,37.7
		z"/>
	<path class="st1" d="M241.4,37.4c0,0.3,0.2,0.5,0.5,0.5h9.3c0.1,0,0.2-0.1,0.3-0.2c0.1-0.1,0.1-0.2,0.1-0.4v-7.1h-10.3L241.4,37.4
		L241.4,37.4z"/>
	<path class="st1" d="M251.7,10.7l4.2,4.9h9.6l-13-15.2c-0.2-0.2-0.3-0.3-0.5-0.3h-10.1c-0.1,0-0.3,0.1-0.4,0.2
		c-0.1,0.1-0.2,0.2-0.2,0.4v14.9h10.3L251.7,10.7L251.7,10.7z"/>
	<path class="st1" d="M286.2,0.6c0-0.1,0-0.3-0.1-0.4c-0.1,0-0.2-0.1-0.4-0.1h-9.3c-0.1,0-0.3,0.1-0.4,0.2s-0.2,0.2-0.2,0.4v14.9
		h10.3v-15H286.2z"/>
	<polygon class="st1" points="272.9,15.5 272.9,27.8 262.4,15.5 252.8,15.5 265.5,30.3 283.2,30.3 283.2,15.5 	"/>
	<path class="st1" d="M301.9,7.8c0-0.5,0.2-1,0.6-1.4s0.9-0.6,1.4-0.6h20c0.5,0,1,0.2,1.4,0.6s0.6,0.9,0.6,1.4v7.7h10.3V6.1
		c0-1.6-0.6-3-1.7-4.2s-2.6-1.8-4.3-1.8h-32.7c-1.6,0-3,0.6-4.2,1.8s-1.7,2.6-1.7,4.2v9.4h10.3L301.9,7.8L301.9,7.8z"/>
	<g>
		<path class="st1" d="M297.5,37.4c-1.5,0-2.8-0.5-3.8-1.6c-1.1-1.1-1.6-2.3-1.6-3.8v-1.2h9.4c0.1,0.5,0.3,0.9,0.7,1.2
			c0.5,0.5,1.1,0.7,1.7,0.7h20c0.7,0,1.3-0.2,1.7-0.7c0.4-0.3,0.6-0.7,0.7-1.2h9.4V32c0,1.5-0.5,2.8-1.6,3.8
			c-1.1,1.1-2.3,1.6-3.8,1.6H297.5z"/>
		<path class="st1" d="M335.1,31.3V32c0,1.4-0.5,2.5-1.4,3.5c-1,1-2.1,1.4-3.5,1.4h-32.7c-1.4,0-2.5-0.5-3.5-1.4
			c-1-1-1.4-2.1-1.4-3.5v-0.7h8.5c0.1,0.4,0.4,0.8,0.7,1.1c0.6,0.5,1.3,0.8,2.1,0.8h20c0.8,0,1.5-0.3,2.1-0.8
			c0.3-0.3,0.6-0.7,0.7-1.1L335.1,31.3 M336.1,30.3h-10.3c0,0.5-0.2,1-0.6,1.3c-0.4,0.4-0.9,0.6-1.4,0.6h-20c-0.5,0-1-0.2-1.4-0.6
			s-0.6-0.8-0.6-1.3h-10.3V32c0,1.6,0.6,3,1.7,4.2c1.2,1.2,2.5,1.7,4.2,1.7h32.7c1.6,0,3-0.6,4.2-1.7c1.2-1.2,1.7-2.5,1.7-4.2
			L336.1,30.3L336.1,30.3z"/>
	</g>
	<path class="st0" d="M15.7,89.2v-4.7c0-0.2-0.1-0.3-0.2-0.4c-0.1-0.1-0.3-0.2-0.4-0.2H3c-0.2,0-0.3,0.1-0.5,0.2
		c-0.1,0.1-0.2,0.3-0.2,0.4v4.8L15.7,89.2L15.7,89.2z"/>
	<path class="st0" d="M57.2,72.9c-1.5-1.5-3.3-2.3-5.5-2.3H19.1c-0.6,0-1.2-0.2-1.7-0.7H3v0.3c0,2.2,0.8,4,2.3,5.5S8.7,78,10.8,78
		h32.6c0.7,0,1.3,0.2,1.8,0.7s0.8,1.1,0.8,1.8v8.6l0,0h13.4V78.3C59.4,76.2,58.7,74.4,57.2,72.9z"/>
	<path class="st0" d="M67.9,98.5c0,0.4,0.2,0.7,0.7,0.7h53.1c0.4,0,0.7-0.2,0.7-0.7v-6.1c0-0.2-0.1-0.3-0.2-0.5
		c-0.1-0.1-0.3-0.2-0.5-0.2H81.4v-2.5H67.9V98.5z"/>
	<path class="st0" d="M81.3,69.9L81.3,69.9V57.3h40.3c0.4,0,0.7-0.2,0.7-0.7v-6.1c0-0.2-0.1-0.3-0.2-0.5c-0.1-0.1-0.3-0.2-0.5-0.2
		h-53c-0.2,0-0.3,0.1-0.5,0.2c-0.1,0.1-0.2,0.3-0.2,0.5v19.4H81.3C81.3,69.9,81.4,69.9,81.3,69.9z"/>
	<path class="st0" d="M142.2,50.5c0-0.2-0.1-0.3-0.2-0.5c-0.1-0.1-0.3-0.2-0.4-0.2h-12.2c-0.2,0-0.3,0.1-0.5,0.2
		c-0.1,0.1-0.2,0.3-0.2,0.5v19.4h13.4L142.2,50.5L142.2,50.5z"/>
	<path class="st0" d="M128.7,98.5c0,0.4,0.2,0.7,0.7,0.7h12.2c0.2,0,0.3-0.1,0.4-0.2c0.1-0.1,0.2-0.3,0.2-0.5v-9.3h-13.4L128.7,98.5
		L128.7,98.5z"/>
	<path class="st0" d="M186.6,90.9c-0.5,0.5-1.1,0.7-1.8,0.7h-20.5c-0.7,0-1.3-0.2-1.8-0.7s-0.7-1.1-0.8-1.7h-13.4v2.2
		c0,2.1,0.8,3.9,2.3,5.5c1.5,1.5,3.3,2.3,5.5,2.3h37.1c2.1,0,3.9-0.8,5.5-2.3c1.5-1.5,2.3-3.3,2.3-5.5v-2.2h-13.4
		C187.4,89.8,187.1,90.4,186.6,90.9z"/>
	<path class="st0" d="M187.6,50.5c0-0.2-0.1-0.3-0.2-0.5c-0.1-0.1-0.3-0.2-0.4-0.2h-12.2c-0.2,0-0.3,0.1-0.5,0.2
		c-0.1,0.1-0.2,0.3-0.2,0.5v19.4h13.4L187.6,50.5L187.6,50.5z"/>
	<path class="st0" d="M208,98.7c0,0.1,0,0.2,0,0.3c0.1,0.1,0.1,0.2,0.2,0.2h12.6c0.3,0,0.5-0.1,0.6-0.3l4.8-9.6h-13.7L208,98.7z"/>
	<polygon class="st0" points="252,69.9 257.8,82 236,82 241.8,69.9 228.5,69.9 219.2,89.3 232.9,89.3 232.9,89.2 260.9,89.2 
		260.9,89.3 274.7,89.3 265.3,69.9 	"/>
	<path class="st0" d="M290.1,69.8c-0.5-0.5-0.8-1.1-0.8-1.8v-8.1c0-0.7,0.3-1.3,0.8-1.8s1.1-0.8,1.8-0.8h23.5c0.7,0,1.3,0.3,1.8,0.8
		s0.8,1.1,0.8,1.8v4.7c0,0.2,0.1,0.3,0.2,0.5c0.1,0.1,0.3,0.2,0.4,0.2h12.2c0.2,0,0.3-0.1,0.5-0.2c0.1-0.1,0.2-0.3,0.2-0.5v-6.9
		c0-2.1-0.8-3.9-2.3-5.5c-1.5-1.5-3.3-2.3-5.5-2.3h-40.1c-2.1,0-4,0.7-5.5,2.2s-2.3,3.4-2.3,5.5v12.3h14.4
		C290.2,69.9,290.1,69.9,290.1,69.8z"/>
	<path class="st0" d="M333.9,72.9c-1.5-1.5-3.3-2.3-5.5-2.3h-32.6c-0.6,0-1.2-0.2-1.7-0.7h-14.4v0.3c0,2.2,0.8,4,2.3,5.5
		s3.4,2.3,5.5,2.3h32.6c0.7,0,1.3,0.2,1.8,0.7s0.8,1.1,0.8,1.8v8.6l0,0h13.4V78.3C336.2,76.2,335.4,74.4,333.9,72.9z"/>
	<path class="st0" d="M292.5,89.2v-4.7c0-0.2-0.1-0.3-0.2-0.4s-0.3-0.2-0.4-0.2h-12.2c-0.2,0-0.3,0.1-0.5,0.2
		c-0.1,0.1-0.2,0.3-0.2,0.4v4.8L292.5,89.2L292.5,89.2z"/>
	<path class="st0" d="M14.3,69.8c-0.5-0.5-0.8-1.1-0.8-1.8v-8.1c0-0.7,0.3-1.3,0.8-1.8s1.1-0.8,1.8-0.8h23.5c0.7,0,1.3,0.3,1.8,0.8
		s0.8,1.1,0.8,1.8v4.7c0,0.2,0.1,0.3,0.2,0.5c0.1,0.1,0.3,0.2,0.4,0.2H55c0.2,0,0.3-0.1,0.5-0.2c0.1-0.1,0.2-0.3,0.2-0.5v-6.9
		c0-2.1-0.8-3.9-2.3-5.5c-1.5-1.5-3.3-2.3-5.5-2.3H7.8c-2.1,0-4,0.7-5.5,2.2C0.8,53.7,0,55.5,0,57.6v12.3h14.4
		C14.3,69.9,14.3,69.9,14.3,69.8z"/>
	<path class="st2" d="M190.6,69.9v19.3l0,0H204V69.9H190.6z"/>
	<path class="st1" d="M129.6,5.8h20.6c0.5,0,1,0.2,1.4,0.6s0.6,0.9,0.6,1.4v7.7h10.4V6.1c0-1.6-0.6-3-1.7-4.2s-2.7-1.8-4.4-1.8
		h-36.7c-0.1,0-0.3,0.1-0.4,0.2s-0.2,0.2-0.2,0.4v14.9h10.3V5.8H129.6z"/>
	<rect x="170.3" y="15.5" class="st2" width="10.3" height="14.8"/>
	<path class="st1" d="M186.8,37.6c0,0.1,0,0.1,0,0.2c0.1,0.1,0.1,0.1,0.2,0.1h9.7c0.2,0,0.4-0.1,0.5-0.3l3.7-7.4h-10.5L186.8,37.6z"
		/>
	<path class="st2" d="M243,59.4l5.1,10.6h13.3l-9.6-19.7c0-0.1-0.1-0.2-0.2-0.3c-0.1-0.1-0.2-0.1-0.3-0.1h-16.5
		c-0.2,0-0.4,0.1-0.6,0.4L224.6,70h13.3L243,59.4z"/>
	<path class="st2" d="M13.3,8.7l3,6.8h9.2L19,0.4c-0.2-0.2-0.3-0.3-0.5-0.3h-15c-0.1,0-0.2,0.1-0.3,0.2C3.1,0.4,3,0.5,3,0.6v14.9
		h10.3V8.7z"/>
	<rect x="52.2" y="15.5" class="st2" width="10.3" height="14.8"/>
	<polygon class="st2" points="40,15.5 33.8,30 27.5,15.5 18.3,15.5 24.7,30.3 42.8,30.3 49.3,15.5 	"/>
	<rect x="5" y="15.5" class="st2" width="10.3" height="14.8"/>
	<path class="st2" d="M50.2,8.7v6.8h10.3V0.6c0-0.1,0-0.3-0.1-0.4c-0.1,0-0.2-0.1-0.3-0.1h-15c-0.1,0-0.2,0-0.3,0.1
		s-0.1,0.1-0.2,0.2L38,15.5h9.2L50.2,8.7z"/>
	<path class="st2" d="M3,37.4c0,0.3,0.2,0.5,0.5,0.5h9.3c0.1,0,0.2-0.1,0.3-0.2c0.1-0.1,0.1-0.2,0.1-0.4v-7.1H3V37.4z"/>
	<g>
		<path class="st2" d="M87.4,7.4l3.9,8.1h10.2L94.1,0.4c0-0.1-0.1-0.1-0.2-0.2s-0.1-0.1-0.2-0.1H81.1c-0.2,0-0.3,0.1-0.5,0.3
			l-7.3,15.1h10.2L87.4,7.4z"/>
	</g>
	<polygon class="st2" points="94.3,15.5 98.8,24.7 82,24.7 86.5,15.5 76.3,15.5 69.1,30.3 79.6,30.3 79.7,30.3 101.1,30.3 
		101.1,30.3 111.7,30.3 104.5,15.5 	"/>
	<path class="st2" d="M132.6,5.8h20.6c0.5,0,1,0.2,1.4,0.6s0.6,0.9,0.6,1.4v7.7h10.4V6.1c0-1.6-0.6-3-1.7-4.2s-2.7-1.8-4.4-1.8
		h-36.7c-0.1,0-0.3,0.1-0.4,0.2s-0.2,0.2-0.2,0.4v14.9h10.3V5.8H132.6z"/>
	<path class="st2" d="M157.5,37.8c0.1,0.1,0.2,0.2,0.4,0.2h10.6c0.1,0,0.2-0.1,0.2-0.2c0-0.1,0-0.2-0.1-0.3l-7.2-7.2H150L157.5,37.8
		z"/>
	<path class="st2" d="M157.5,24.9c1.7,0,3.1-0.6,4.2-1.7c1.2-1.2,1.7-2.6,1.7-4.2v-3.5H153v1.7c0,0.5-0.2,1-0.6,1.4
		c-0.4,0.4-0.8,0.6-1.4,0.6h-20.6v-3.7h-10.3v14.8h10.3v-5.4h11l5.4,5.4h11.4l-5.4-5.4H157.5z"/>
	<path class="st2" d="M181.6,0.6c0-0.1,0-0.3-0.1-0.4S181.3,0,181.2,0h-9.3c-0.1,0-0.3,0.1-0.4,0.2c-0.1,0.1-0.2,0.2-0.2,0.4v14.9
		h10.3V0.6z"/>
	<path class="st2" d="M229.1,37.6c0.1,0.2,0.3,0.3,0.5,0.3h9.7c0.1,0,0.1,0,0.2-0.1c0.1-0.1,0.1-0.2,0-0.2l-3.5-7.3h-10.6
		L229.1,37.6z"/>
	<polygon class="st2" points="215.5,15.5 219.9,24.7 203.2,24.7 207.7,15.5 197.5,15.5 190.3,30.3 200.8,30.3 200.8,30.3 
		222.3,30.3 222.3,30.3 232.9,30.3 225.7,15.5 	"/>
	<path class="st2" d="M189.8,37.6c0,0.1,0,0.1,0,0.2c0.1,0.1,0.1,0.1,0.2,0.1h9.7c0.2,0,0.4-0.1,0.5-0.3l3.7-7.4h-10.5L189.8,37.6z"
		/>
	<path class="st2" d="M277.9,37.7c0,0.1,0.2,0.2,0.4,0.2h10.5c0.1,0,0.2-0.1,0.3-0.2c0.1-0.1,0.1-0.2,0.1-0.4v-7.1h-17.7L277.9,37.7
		z"/>
	<path class="st2" d="M244.4,37.4c0,0.3,0.2,0.5,0.5,0.5h9.3c0.1,0,0.2-0.1,0.3-0.2c0.1-0.1,0.1-0.2,0.1-0.4v-7.1h-10.3L244.4,37.4
		L244.4,37.4z"/>
	<path class="st2" d="M254.7,10.7l4.2,4.9h9.6l-13-15.2c-0.2-0.2-0.3-0.3-0.5-0.3h-10.1c-0.1,0-0.3,0.1-0.4,0.2
		c-0.1,0.1-0.2,0.2-0.2,0.4v14.9h10.3L254.7,10.7L254.7,10.7z"/>
	<path class="st2" d="M289.2,0.6c0-0.1,0-0.3-0.1-0.4c-0.1,0-0.2-0.1-0.4-0.1h-9.3c-0.1,0-0.3,0.1-0.4,0.2s-0.2,0.2-0.2,0.4v14.9
		h10.3v-15H289.2z"/>
	<polygon class="st2" points="275.9,15.5 275.9,27.8 265.4,15.5 255.8,15.5 268.5,30.3 286.2,30.3 286.2,15.5 	"/>
	<g>
		<path class="st2" d="M304.9,7.8c0-0.5,0.2-1,0.6-1.4s0.9-0.6,1.4-0.6h20c0.5,0,1,0.2,1.4,0.6s0.6,0.9,0.6,1.4v7.7h10.3V6.1
			c0-1.6-0.6-3-1.7-4.2s-2.6-1.8-4.3-1.8h-32.7c-1.6,0-3,0.6-4.2,1.8s-1.7,2.6-1.7,4.2v9.4h10.3L304.9,7.8L304.9,7.8z"/>
	</g>
	<g>
		<path class="st2" d="M328.2,31.7c-0.4,0.4-0.9,0.6-1.4,0.6h-20c-0.5,0-1-0.2-1.4-0.6c-0.4-0.4-0.6-0.8-0.6-1.3h-10.3v1.7
			c0,1.6,0.6,3,1.7,4.2c1.2,1.2,2.5,1.7,4.2,1.7h32.7c1.6,0,3-0.6,4.2-1.7c1.2-1.2,1.7-2.5,1.7-4.2v-1.7h-10.3
			C328.8,30.9,328.6,31.3,328.2,31.7z"/>
	</g>
	<path class="st2" d="M18.7,89.2v-4.7c0-0.2-0.1-0.3-0.2-0.4s-0.3-0.2-0.4-0.2H6c-0.2,0-0.3,0.1-0.5,0.2c-0.1,0.1-0.2,0.3-0.2,0.4
		v4.8L18.7,89.2L18.7,89.2z"/>
	<path class="st2" d="M60.1,72.9c-1.5-1.5-3.3-2.3-5.5-2.3H22.1c-0.6,0-1.2-0.2-1.7-0.7H6v0.3c0,2.2,0.8,4,2.3,5.5s3.4,2.3,5.5,2.3
		h32.6c0.7,0,1.3,0.2,1.8,0.7s0.8,1.1,0.8,1.8v8.6l0,0h13.4V78.3C62.4,76.2,61.6,74.4,60.1,72.9z"/>
	<path class="st2" d="M70.9,98.5c0,0.4,0.2,0.7,0.7,0.7h53.1c0.4,0,0.7-0.2,0.7-0.7v-6.1c0-0.2-0.1-0.3-0.2-0.5
		c-0.1-0.1-0.3-0.2-0.5-0.2H84.3v-2.5H70.9V98.5z"/>
	<path class="st2" d="M84.3,69.9L84.3,69.9V57.3h40.3c0.4,0,0.7-0.2,0.7-0.7v-6.1c0-0.2-0.1-0.3-0.2-0.5c-0.1-0.1-0.3-0.2-0.5-0.2
		h-53c-0.2,0-0.3,0.1-0.5,0.2c-0.1,0.1-0.2,0.3-0.2,0.5v19.4H84.3L84.3,69.9z"/>
	<path class="st2" d="M145.1,50.5c0-0.2-0.1-0.3-0.2-0.5c-0.1-0.1-0.3-0.2-0.4-0.2h-12.2c-0.2,0-0.3,0.1-0.5,0.2
		c-0.1,0.1-0.2,0.3-0.2,0.5v19.4H145L145.1,50.5L145.1,50.5z"/>
	<path class="st2" d="M131.7,98.5c0,0.4,0.2,0.7,0.7,0.7h12.2c0.2,0,0.3-0.1,0.4-0.2c0.1-0.1,0.2-0.3,0.2-0.5v-9.3h-13.4L131.7,98.5
		L131.7,98.5z"/>
	<g>
		<path class="st2" d="M159.2,98.7c-2,0-3.7-0.7-5.1-2.1c-1.4-1.4-2.1-3.1-2.1-5.1v-1.7h12.5c0.1,0.6,0.4,1.2,0.9,1.6
			c0.6,0.6,1.3,0.9,2.2,0.9H188c0.8,0,1.6-0.3,2.2-0.9c0.5-0.5,0.8-1,0.9-1.6h12.5v1.7c0,2-0.7,3.7-2.1,5.1
			c-1.4,1.4-3.1,2.1-5.1,2.1H159.2z"/>
	</g>
	<g>
		<path class="st2" d="M189.6,90.9c-0.5,0.5-1.1,0.7-1.8,0.7h-20.5c-0.7,0-1.3-0.2-1.8-0.7s-0.7-1.1-0.8-1.7h-13.4v2.2
			c0,2.1,0.8,3.9,2.3,5.5c1.5,1.5,3.3,2.3,5.5,2.3h37.1c2.1,0,3.9-0.8,5.5-2.3c1.5-1.5,2.3-3.3,2.3-5.5v-2.2h-13.4
			C190.4,89.8,190.1,90.4,189.6,90.9z"/>
	</g>
	<path class="st2" d="M190.7,50.5c0-0.2-0.1-0.3-0.2-0.5c-0.1-0.1-0.3-0.2-0.4-0.2h-12.2c-0.2,0-0.3,0.1-0.5,0.2
		c-0.1,0.1-0.2,0.3-0.2,0.5v19.4h13.4L190.7,50.5L190.7,50.5z"/>
	<path class="st2" d="M211,98.7c0,0.1,0,0.2,0,0.3s0.1,0.2,0.2,0.2h12.6c0.3,0,0.5-0.1,0.6-0.3l4.8-9.6h-13.7L211,98.7z"/>
	<path class="st2" d="M293,69.8c-0.5-0.5-0.8-1.1-0.8-1.8v-8.1c0-0.7,0.3-1.3,0.8-1.8s1.1-0.8,1.8-0.8h23.5c0.7,0,1.3,0.3,1.8,0.8
		s0.8,1.1,0.8,1.8v4.7c0,0.2,0.1,0.3,0.2,0.5c0.1,0.1,0.3,0.2,0.4,0.2h12.2c0.2,0,0.3-0.1,0.5-0.2c0.1-0.1,0.2-0.3,0.2-0.5v-6.9
		c0-2.1-0.8-3.9-2.3-5.5c-1.5-1.5-3.3-2.3-5.5-2.3h-40.1c-2.1,0-4,0.7-5.5,2.2s-2.3,3.4-2.3,5.5v12.3h14.4
		C293.1,69.9,293.1,69.9,293,69.8z"/>
	<path class="st2" d="M17.2,69.8c-0.5-0.5-0.8-1.1-0.8-1.8v-8.1c0-0.7,0.3-1.3,0.8-1.8s1.1-0.8,1.8-0.8h23.5c0.7,0,1.3,0.3,1.8,0.8
		s0.8,1.1,0.8,1.8v4.7c0,0.2,0.1,0.3,0.2,0.5c0.1,0.1,0.3,0.2,0.4,0.2h12.2c0.2,0,0.3-0.1,0.5-0.2c0.1-0.1,0.2-0.3,0.2-0.5v-6.9
		c0-2.1-0.8-3.9-2.3-5.5c-1.5-1.5-3.3-2.3-5.5-2.3h-40c-2.1,0-4,0.7-5.5,2.2C3.7,53.7,3,55.5,3,57.6v12.3h14.4
		C17.3,69.9,17.3,69.9,17.2,69.8z"/>
	<path class="st2" d="M336.9,72.9c-1.5-1.5-3.3-2.3-5.5-2.3h-32.6c-0.6,0-1.2-0.2-1.7-0.7h-14.4v0.3c0,2.2,0.8,4,2.3,5.5
		s3.4,2.3,5.5,2.3h32.6c0.7,0,1.3,0.2,1.8,0.7s0.8,1.1,0.8,1.8v8.6l0,0h13.4V78.3C339.1,76.2,338.4,74.4,336.9,72.9z"/>
	<path class="st2" d="M295.5,89.2v-4.7c0-0.2-0.1-0.3-0.2-0.4s-0.3-0.2-0.4-0.2h-12.2c-0.2,0-0.3,0.1-0.5,0.2
		c-0.1,0.1-0.2,0.3-0.2,0.4v4.8L295.5,89.2L295.5,89.2z"/>
	<path class="st2" d="M116.2,77.3c0.2,0,0.3-0.1,0.4-0.2s0.2-0.3,0.2-0.4v-6.2c0-0.2-0.1-0.3-0.2-0.4s-0.2-0.1-0.4-0.2H67.9v19.3
		h13.4V77.3H116.2z"/>
	<path class="st0" d="M113.2,77.3c0.2,0,0.3-0.1,0.4-0.2s0.2-0.3,0.2-0.4v-6.2c0-0.2-0.1-0.3-0.2-0.4s-0.2-0.1-0.4-0.2H64.9v19.3
		h13.4V77.3H113.2z"/>
	<rect x="173.3" y="15.5" class="st1" width="10.3" height="14.8"/>
	<path class="st0" d="M246,59.4l5.1,10.6h13.3l-9.6-19.7c0-0.1-0.1-0.2-0.2-0.3c-0.1-0.1-0.2-0.1-0.3-0.1h-16.5
		c-0.2,0-0.4,0.1-0.6,0.4L227.6,70h13.3L246,59.4z"/>
	<polygon class="st2" points="255,69.9 260.8,82 239,82 244.8,69.9 231.5,69.9 222.1,89.3 235.9,89.3 235.9,89.2 263.9,89.2 
		263.9,89.3 277.7,89.3 268.3,69.9 	"/>
</g>
<polygon class="st2" points="159.3,203.9 135.1,179.6 183.5,179.6 "/>
<polygon class="st2" points="159.3,197.9 135.1,173.7 183.5,173.7 "/>
</svg>
