<?xml version="1.0" encoding="UTF-8"?>
<svg id="Capa_1" data-name="Capa 1" xmlns="http://www.w3.org/2000/svg" xmlns:xlink="http://www.w3.org/1999/xlink" viewBox="0 0 250 200">
  <defs>
    <style>
      .cls-1 {
        fill: url(#Degradado_sin_nombre);
      }

      .cls-1, .cls-2, .cls-3, .cls-4, .cls-5, .cls-6, .cls-7, .cls-8, .cls-9, .cls-10, .cls-11, .cls-12, .cls-13, .cls-14, .cls-15, .cls-16, .cls-17 {
        stroke-width: 0px;
      }

      .cls-1, .cls-2, .cls-3, .cls-4, .cls-5, .cls-7, .cls-8, .cls-9, .cls-10, .cls-11, .cls-13, .cls-14, .cls-16, .cls-17 {
        fill-rule: evenodd;
      }

      .cls-2 {
        fill: url(#Degradado_sin_nombre-11);
      }

      .cls-3 {
        fill: url(#Degradado_sin_nombre-9);
      }

      .cls-4 {
        fill: url(#Degradado_sin_nombre-2);
      }

      .cls-5 {
        fill: url(#Degradado_sin_nombre-12);
      }

      .cls-6 {
        fill: url(#Degradado_sin_nombre-4);
      }

      .cls-7 {
        fill: url(#Degradado_sin_nombre-6);
      }

      .cls-8 {
        fill: url(#Degradado_sin_nombre-3);
      }

      .cls-9 {
        fill: url(#Degradado_sin_nombre-8);
      }

      .cls-10 {
        fill: url(#Degradado_sin_nombre-16);
      }

      .cls-11 {
        fill: url(#Degradado_sin_nombre-10);
      }

      .cls-12 {
        fill: url(#Degradado_sin_nombre-5);
      }

      .cls-13 {
        fill: url(#Degradado_sin_nombre-15);
      }

      .cls-14 {
        fill: url(#Degradado_sin_nombre-14);
      }

      .cls-15 {
        fill: #fff;
      }

      .cls-16 {
        fill: url(#Degradado_sin_nombre-13);
      }

      .cls-17 {
        fill: url(#Degradado_sin_nombre-7);
      }
    </style>
    <linearGradient id="Degradado_sin_nombre" data-name="Degradado sin nombre" x1="247.489" y1="-10.449" x2="-4.915" y2="190.72" gradientUnits="userSpaceOnUse">
      <stop offset="0" stop-color="#f0f"/>
      <stop offset="1" stop-color="aqua"/>
    </linearGradient>
    <linearGradient id="Degradado_sin_nombre-2" data-name="Degradado sin nombre" x1="273.025" y1="21.591" x2="20.62" y2="222.76" xlink:href="#Degradado_sin_nombre"/>
    <linearGradient id="Degradado_sin_nombre-3" data-name="Degradado sin nombre" x1="232.189" y1="-29.645" x2="-20.215" y2="171.524" xlink:href="#Degradado_sin_nombre"/>
    <linearGradient id="Degradado_sin_nombre-4" data-name="Degradado sin nombre" x1="208.108" y1="-59.86" x2="-44.297" y2="141.309" xlink:href="#Degradado_sin_nombre"/>
    <linearGradient id="Degradado_sin_nombre-5" data-name="Degradado sin nombre" x1="306.833" y1="64.009" x2="54.428" y2="265.178" xlink:href="#Degradado_sin_nombre"/>
    <linearGradient id="Degradado_sin_nombre-6" data-name="Degradado sin nombre" x1="193.918" y1="-77.663" x2="-58.486" y2="123.505" xlink:href="#Degradado_sin_nombre"/>
    <linearGradient id="Degradado_sin_nombre-7" data-name="Degradado sin nombre" x1="222.923" y1="-41.272" x2="-29.482" y2="159.897" xlink:href="#Degradado_sin_nombre"/>
    <linearGradient id="Degradado_sin_nombre-8" data-name="Degradado sin nombre" x1="280.192" y1="30.584" x2="27.787" y2="231.752" xlink:href="#Degradado_sin_nombre"/>
    <linearGradient id="Degradado_sin_nombre-9" data-name="Degradado sin nombre" x1="277.457" y1="27.153" x2="25.053" y2="228.321" xlink:href="#Degradado_sin_nombre"/>
    <linearGradient id="Degradado_sin_nombre-10" data-name="Degradado sin nombre" x1="220.201" y1="-44.686" x2="-32.203" y2="156.482" xlink:href="#Degradado_sin_nombre"/>
    <linearGradient id="Degradado_sin_nombre-11" data-name="Degradado sin nombre" x1="254.748" y1="-1.341" x2="2.343" y2="199.828" xlink:href="#Degradado_sin_nombre"/>
    <linearGradient id="Degradado_sin_nombre-12" data-name="Degradado sin nombre" x1="275.768" y1="25.033" x2="23.364" y2="226.202" xlink:href="#Degradado_sin_nombre"/>
    <linearGradient id="Degradado_sin_nombre-13" data-name="Degradado sin nombre" x1="244.064" y1="-14.746" x2="-8.341" y2="186.422" xlink:href="#Degradado_sin_nombre"/>
    <linearGradient id="Degradado_sin_nombre-14" data-name="Degradado sin nombre" x1="249.187" y1="-8.318" x2="-3.218" y2="192.85" xlink:href="#Degradado_sin_nombre"/>
    <linearGradient id="Degradado_sin_nombre-15" data-name="Degradado sin nombre" x1="254.44" y1="-1.727" x2="2.036" y2="199.442" xlink:href="#Degradado_sin_nombre"/>
    <linearGradient id="Degradado_sin_nombre-16" data-name="Degradado sin nombre" x1="293.692" y1="47.522" x2="41.288" y2="248.691" xlink:href="#Degradado_sin_nombre"/>
  </defs>
  <g>
    <path class="cls-1" d="M80.524,107.474c.42,0,.795.263.938.658l7.042,19.363,3.052-8.395c.144-.393.519-.655.938-.654h6.982c.551,0,.997.447.997.997s-.447.997-.997.997h-6.284l-3.751,10.314c-.188.518-.76.785-1.278.597-.278-.101-.497-.32-.597-.597l-7.042-19.363-3.052,8.393c-.143.394-.518.656-.938.656h-6.982c-.551,0-.997-.447-.997-.997s.447-.997.997-.997h6.284l3.751-10.314c.143-.395.518-.658.938-.658"/>
    <path class="cls-4" d="M172.301,88.057c.491.296.744.868.633,1.431l-5.409,27.617,9.488-7.67c.446-.359,1.068-.4,1.558-.105l8.169,4.922c.645.388.852,1.226.464,1.87s-1.226.852-1.87.464l-7.352-4.429-11.658,9.423c-.585.473-1.443.383-1.916-.202-.254-.314-.356-.724-.278-1.12l5.409-27.617-9.487,7.668c-.446.36-1.069.403-1.56.107l-8.169-4.922c-.645-.388-.852-1.226-.464-1.87s1.226-.852,1.87-.464l7.352,4.429,11.658-9.423c.445-.361,1.07-.405,1.561-.109"/>
    <path class="cls-8" d="M85.71,71.144c.369-.201.824-.15,1.138.129l15.458,13.623-1.342-8.831c-.062-.414.142-.823.51-1.024l6.129-3.345c.484-.264,1.09-.086,1.353.398s.086,1.09-.398,1.353l-5.516,3.011,1.649,10.85c.083.545-.291,1.053-.836,1.137-.292.045-.589-.043-.81-.238l-15.458-13.623,1.342,8.829c.063.415-.14.824-.509,1.025l-6.129,3.345c-.484.264-1.09.086-1.353-.398s-.086-1.09.398-1.353l5.516-3.011-1.649-10.85c-.064-.415.139-.826.508-1.027"/>
    <path class="cls-6" d="M65.234,37.12c-.435-1.032.049-2.222,1.081-2.658l3.739-1.576c1.032-.435,2.222.049,2.658,1.081l9.459,22.433.935-.394c.516-.218,1.111.024,1.329.541s-.024,1.111-.541,1.329l-28.041,11.823c-.516.218-1.111-.024-1.329-.541s.024-1.111.541-1.329l.935-.394-2.365-5.608c-.435-1.032.049-2.222,1.081-2.658l3.739-1.576c1.032-.435,2.222.049,2.658,1.081l2.365,5.608,1.869-.788-5.517-13.086c-.435-1.032.049-2.222,1.081-2.658l3.739-1.576c1.032-.435,2.222.049,2.658,1.081l5.517,13.086,1.869-.788-9.459-22.433ZM76.562,58.765l3.739-1.576-9.459-22.433-3.739,1.576,9.459,22.433ZM70.954,61.13l-5.517-13.086-3.739,1.576,5.517,13.086,3.739-1.576ZM61.607,65.071l-2.365-5.608-3.739,1.576,2.365,5.608,3.739-1.576Z"/>
    <path class="cls-12" d="M206.885,135.918c.428-1.035,1.615-1.527,2.65-1.099l3.749,1.551c1.035.428,1.527,1.615,1.099,2.65l-9.309,22.496.937.388c.518.214.764.808.549,1.325s-.808.764-1.325.549l-28.119-11.636c-.518-.214-.764-.808-.549-1.325s.808-.764,1.325-.549l.937.388,2.327-5.624c.428-1.035,1.615-1.527,2.65-1.099l3.749,1.551c1.035.428,1.527,1.615,1.099,2.65l-2.327,5.624,1.875.776,5.43-13.122c.428-1.035,1.615-1.527,2.65-1.099l3.749,1.551c1.035.428,1.527,1.615,1.099,2.65l-5.43,13.122,1.875.776,9.309-22.496ZM199.451,159.189l3.749,1.551,9.309-22.496-3.749-1.551-9.309,22.496ZM193.827,156.862l5.43-13.122-3.749-1.551-5.43,13.122,3.749,1.551ZM184.454,152.983l2.327-5.624-3.749-1.551-2.327,5.624,3.749,1.551Z"/>
    <path class="cls-7" d="M41.332,35.303c.377-.403,1.01-.424,1.413-.047.016.015.032.031.047.047l6.345,6.77c.6.638.146,1.683-.73,1.683h-2.845v1c0,.552-.448,1-1,1h-5c-.552,0-1-.448-1-1v-1h-2.846c-.874,0-1.328-1.045-.73-1.684l6.346-6.769ZM48.408,42.756l-6.346-6.769-6.346,6.769h2.846c.552,0,1,.448,1,1v1h5v-1c0-.552.448-1,1-1h2.846ZM38.562,47.756c0-.552.448-1,1-1h5c.552,0,1,.448,1,1v1c0,.552-.448,1-1,1h-5c-.552,0-1-.448-1-1v-1ZM44.562,47.756h-5v1h5v-1Z"/>
    <path class="cls-17" d="M120.223,21.383c.838-.895,2.243-.941,3.138-.103.036.033.07.068.103.103l14.088,15.032c1.332,1.417.324,3.737-1.621,3.737h-6.317v2.22c0,1.226-.994,2.22-2.22,2.22h-11.102c-1.226,0-2.22-.994-2.22-2.22v-2.22h-6.319c-1.941,0-2.949-2.32-1.621-3.739l14.09-15.029ZM135.934,37.931l-14.09-15.029-14.09,15.029h6.319c1.226,0,2.22.994,2.22,2.22v2.22h11.102v-2.22c0-1.226.994-2.22,2.22-2.22h6.319ZM114.073,49.032c0-1.226.994-2.22,2.22-2.22h11.102c1.226,0,2.22.994,2.22,2.22v2.22c0,1.226-.994,2.22-2.22,2.22h-11.102c-1.226,0-2.22-.994-2.22-2.22v-2.22ZM127.395,49.032h-11.102v2.22h11.102v-2.22Z"/>
    <path class="cls-9" d="M211.519,71.146c.619-.661,1.656-.695,2.317-.076.026.025.052.05.076.076l10.399,11.096c.983,1.046.239,2.758-1.196,2.758h-4.663v1.639c0,.905-.734,1.639-1.639,1.639h-8.195c-.905,0-1.639-.734-1.639-1.639v-1.639h-4.664c-1.432,0-2.177-1.713-1.196-2.76l10.401-11.094ZM223.116,83.361l-10.401-11.094-10.401,11.094h4.664c.905,0,1.639.734,1.639,1.639v1.639h8.195v-1.639c0-.905.734-1.639,1.639-1.639h4.664ZM206.979,91.555c0-.905.734-1.639,1.639-1.639h8.195c.905,0,1.639.734,1.639,1.639v1.639c0,.905-.734,1.639-1.639,1.639h-8.195c-.905,0-1.639-.734-1.639-1.639v-1.639ZM216.813,91.555h-8.195v1.639h8.195v-1.639Z"/>
    <path class="cls-3" d="M105.821,141.059c.999-1.067,2.674-1.122,3.742-.123.042.04.084.081.123.123l16.797,17.922c1.588,1.689.386,4.455-1.932,4.455h-7.531v2.647c0,1.462-1.185,2.647-2.647,2.647h-13.236c-1.462,0-2.647-1.185-2.647-2.647v-2.647h-7.534c-2.314,0-3.516-2.766-1.932-4.458l16.799-17.919ZM124.553,160.789l-16.799-17.919-16.799,17.919h7.534c1.462,0,2.647,1.185,2.647,2.647v2.647h13.236v-2.647c0-1.462,1.185-2.647,2.647-2.647h7.534ZM98.488,174.025c0-1.462,1.185-2.647,2.647-2.647h13.236c1.462,0,2.647,1.185,2.647,2.647v2.647c0,1.462-1.185,2.647-2.647,2.647h-13.236c-1.462,0-2.647-1.185-2.647-2.647v-2.647ZM114.372,174.025h-13.236v2.647h13.236v-2.647Z"/>
    <path class="cls-11" d="M38.173,83.497c.738-.788,1.974-.829,2.762-.091.031.029.062.06.091.091l12.399,13.229c1.172,1.247.285,3.289-1.426,3.289h-5.559v1.954c0,1.079-.875,1.954-1.954,1.954h-9.77c-1.079,0-1.954-.875-1.954-1.954v-1.954h-5.561c-1.708,0-2.595-2.042-1.426-3.291l12.401-13.227ZM52,98.06l-12.401-13.227-12.401,13.227h5.561c1.079,0,1.954.875,1.954,1.954v1.954h9.77v-1.954c0-1.079.875-1.954,1.954-1.954h5.561ZM32.76,107.831c0-1.079.875-1.954,1.954-1.954h9.77c1.079,0,1.954.875,1.954,1.954v1.954c0,1.079-.875,1.954-1.954,1.954h-9.77c-1.079,0-1.954-.875-1.954-1.954v-1.954ZM44.485,107.831h-9.77v1.954h9.77v-1.954Z"/>
    <path class="cls-2" d="M202.15,31.911c.378-.404,1.013-.425,1.417-.047.016.015.032.031.047.047l6.362,6.788c.602.64.146,1.688-.732,1.688h-2.853v1.003c0,.554-.449,1.003-1.003,1.003h-5.013c-.554,0-1.003-.449-1.003-1.003v-1.003h-2.854c-.876,0-1.332-1.048-.732-1.689l6.363-6.787ZM209.245,39.384l-6.363-6.787-6.363,6.787h2.854c.554,0,1.003.449,1.003,1.003v1.003h5.013v-1.003c0-.554.449-1.003,1.003-1.003h2.854ZM199.373,44.397c0-.554.449-1.003,1.003-1.003h5.013c.554,0,1.003.449,1.003,1.003v1.003c0,.554-.449,1.003-1.003,1.003h-5.013c-.554,0-1.003-.449-1.003-1.003v-1.003ZM205.389,44.397h-5.013v1.003h5.013v-1.003Z"/>
    <path class="cls-5" d="M148.801,116.002c.446-.477,1.195-.501,1.672-.055.019.018.037.036.055.055l7.504,8.006c.71.755.173,1.99-.863,1.99h-3.365v1.183c0,.653-.529,1.183-1.183,1.183h-5.913c-.653,0-1.183-.529-1.183-1.183v-1.183h-3.366c-1.034,0-1.571-1.236-.863-1.992l7.505-8.005ZM157.169,124.816l-7.505-8.005-7.505,8.005h3.366c.653,0,1.183.529,1.183,1.183v1.183h5.913v-1.183c0-.653.529-1.183,1.183-1.183h3.366ZM145.525,130.729c0-.653.529-1.183,1.183-1.183h5.913c.653,0,1.183.529,1.183,1.183v1.183c0,.653-.529,1.183-1.183,1.183h-5.913c-.653,0-1.183-.529-1.183-1.183v-1.183ZM152.621,130.729h-5.913v1.183h5.913v-1.183Z"/>
    <path class="cls-16" d="M33.472,134.632l1.356-.636,9.54,20.344,20.344-9.54.636,1.356-21.701,10.176-10.176-21.701ZM49.261,133.019c-.176-.375-.014-.821.36-.996l5.425-2.544c.375-.176.821-.014.996.36l2.544,5.425c.176.375.014.821-.36.996s-.821.014-.996-.36l-1.654-3.526-2.091,8.289c-.102.401-.509.644-.91.542-.024-.006-.047-.013-.07-.021l-5.154-1.863-1.761,9.143c-.093.403-.496.654-.899.56-.382-.089-.631-.457-.571-.844l1.927-10.004c.078-.406.47-.672.877-.595.039.007.076.018.113.031l5.199,1.881,2.016-7.987-3.994,1.873c-.375.176-.821.014-.996-.36"/>
    <path class="cls-14" d="M152.621,40.054h1.989v29.832h29.832v1.989h-31.821v-31.821ZM172.51,47.015c0-.549.445-.994.994-.994h7.955c.549,0,.994.445.994.994v7.955c0,.549-.445.994-.994.994s-.994-.445-.994-.994v-5.171l-7.186,8.785c-.348.425-.975.487-1.399.139-.025-.021-.049-.042-.072-.065l-5.145-5.145-7.271,9.998c-.339.432-.965.506-1.396.167-.409-.322-.501-.904-.211-1.336l7.955-10.939c.323-.444.944-.543,1.389-.221.042.031.082.064.119.101l5.189,5.191,6.925-8.464h-5.857c-.549,0-.994-.445-.994-.994"/>
    <path class="cls-13" d="M115.408,92.649h1.143v17.148h17.148v1.143h-18.291v-18.291ZM126.84,96.65c0-.316.256-.572.572-.572h4.573c.316,0,.572.256.572.572v4.573c0,.316-.256.572-.572.572s-.572-.256-.572-.572v-2.972l-4.13,5.049c-.2.244-.56.28-.804.08-.014-.012-.028-.024-.042-.038l-2.957-2.957-4.179,5.747c-.195.248-.554.291-.803.096-.235-.185-.288-.52-.121-.768l4.573-6.287c.185-.255.543-.312.798-.127.024.018.047.037.068.058l2.983,2.984,3.981-4.865h-3.367c-.316,0-.572-.256-.572-.572"/>
    <path class="cls-10" d="M147.923,155.845c.113-.287.393-.472.701-.464l15.116.387-4.915-4.338c-.23-.204-.308-.53-.195-.816l1.874-4.769c.148-.376.573-.561.949-.414s.561.573.414.949l-1.687,4.292,6.038,5.33c.303.267.332.73.065,1.033-.143.163-.352.253-.568.248l-15.116-.387,4.913,4.337c.231.204.309.53.197.817l-1.874,4.769c-.148.376-.573.561-.949.414s-.561-.573-.414-.949l1.687-4.292-6.038-5.33c-.231-.204-.311-.53-.198-.817"/>
  </g>
  <path class="cls-15" d="M88.336,47.883c1.385-1.619,3.409-2.551,5.54-2.551h62.249c2.131,0,4.155.932,5.54,2.551l19.017,22.188c1.698,1.981,2.631,4.505,2.631,7.114v1.859c.001,9.561-7.749,17.313-17.31,17.314-5.344,0-10.389-2.467-13.669-6.686-3.277,4.222-8.323,6.69-13.667,6.684-5.344.006-10.391-2.462-13.667-6.684-3.277,4.222-8.323,6.69-13.667,6.684-5.344.006-10.391-2.462-13.667-6.684-5.868,7.548-16.745,8.91-24.293,3.041-4.219-3.28-6.687-8.325-6.686-13.669v-1.859c0-2.609.933-5.133,2.631-7.114l19.017-22.188ZM101.31,79.044c0,5.535,4.487,10.023,10.023,10.023s10.023-4.487,10.023-10.023c0-2.013,1.632-3.645,3.645-3.645s3.645,1.632,3.645,3.645c0,5.535,4.487,10.023,10.023,10.023s10.023-4.487,10.023-10.023c0-2.013,1.632-3.645,3.645-3.645s3.645,1.632,3.645,3.645c0,5.535,4.487,10.023,10.023,10.023s10.023-4.487,10.023-10.023v-1.859c0-.869-.31-1.709-.875-2.369l-19.025-22.195h-62.249l-19.025,22.195c-.565.66-.875,1.5-.875,2.369v1.859c0,5.535,4.487,10.023,10.023,10.023s10.023-4.487,10.023-10.023c0-2.013,1.632-3.645,3.645-3.645s3.645,1.632,3.645,3.645M77.62,100c2.013,0,3.645,1.632,3.645,3.645v43.735h7.289v-36.446c0-4.026,3.263-7.289,7.289-7.289h21.867c4.026,0,7.289,3.263,7.289,7.289v36.446h43.735v-43.735c0-2.013,1.632-3.645,3.645-3.645s3.645,1.632,3.645,3.645v43.735h3.645c2.013,0,3.645,1.632,3.645,3.645s-1.632,3.645-3.645,3.645h-109.337c-2.013,0-3.645-1.632-3.645-3.645s1.632-3.645,3.645-3.645h3.645v-43.735c0-2.013,1.632-3.645,3.645-3.645M95.843,147.38h21.867v-36.446h-21.867v36.446ZM132.289,110.934c0-4.026,3.263-7.289,7.289-7.289h14.578c4.026,0,7.289,3.263,7.289,7.289v21.867c0,4.026-3.263,7.289-7.289,7.289h-14.578c-4.026,0-7.289-3.263-7.289-7.289v-21.867ZM154.157,110.934h-14.578v21.867h14.578v-21.867Z"/>
</svg>