<?xml version="1.0" standalone="no"?>
<!DOCTYPE svg PUBLIC "-//W3C//DTD SVG 20010904//EN"
 "http://www.w3.org/TR/2001/REC-SVG-20010904/DTD/svg10.dtd">
<svg version="1.0" xmlns="http://www.w3.org/2000/svg"
 width="700.000000pt" height="700.000000pt" viewBox="0 0 700.000000 700.000000"
 preserveAspectRatio="xMidYMid meet">
<metadata>
Created by potrace 1.11, written by Peter Selinger 2001-2013
</metadata>
<g transform="translate(0.000000,700.000000) scale(0.100000,-0.100000)"
fill="#000000" stroke="none">
<path d="M3270 6994 c-156 -14 -335 -39 -463 -65 -1026 -206 -1906 -865 -2404
-1799 -154 -289 -282 -658 -342 -985 -44 -240 -55 -361 -55 -640 -1 -282 11
-423 55 -655 177 -928 716 -1741 1504 -2264 466 -310 950 -488 1530 -563 191
-24 624 -24 810 0 469 62 873 190 1250 395 337 183 585 371 855 648 471 483
787 1082 919 1741 52 261 65 400 65 693 0 276 -12 421 -55 650 -164 865 -642
1625 -1356 2161 -471 353 -1030 578 -1638 660 -144 19 -559 33 -675 23z m-335
-2029 c286 -52 472 -182 586 -410 22 -43 41 -81 43 -82 2 -2 24 28 49 67 150
225 389 380 661 429 106 19 267 24 374 12 141 -17 241 -44 347 -96 247 -121
384 -342 430 -692 12 -95 15 -286 15 -1139 l0 -1024 -130 0 -130 0 0 995 c0
628 -4 1032 -11 1093 -22 204 -76 346 -173 449 -118 127 -252 175 -486 177
-212 1 -357 -31 -494 -108 -189 -107 -294 -279 -358 -589 -7 -34 -13 -387 -17
-1032 l-6 -980 -132 -3 -133 -3 0 988 c0 548 -5 1039 -10 1103 -28 335 -168
529 -437 602 -103 28 -346 30 -468 4 -400 -87 -587 -360 -625 -910 -5 -78 -10
-511 -10 -963 l0 -823 -130 0 -130 0 0 1450 0 1450 109 0 109 0 10 -72 c6 -40
19 -128 28 -195 9 -68 21 -123 25 -123 5 0 26 26 48 58 138 204 376 344 646
381 89 13 296 5 400 -14z"/>
</g>
</svg>
