<?xml version="1.0" standalone="no"?>
<!DOCTYPE svg PUBLIC "-//W3C//DTD SVG 20010904//EN"
 "http://www.w3.org/TR/2001/REC-SVG-20010904/DTD/svg10.dtd">
<svg version="1.0" xmlns="http://www.w3.org/2000/svg"
 width="700.000000pt" height="700.000000pt" viewBox="0 0 700.000000 700.000000"
 preserveAspectRatio="xMidYMid meet">
<metadata>
Created by potrace 1.11, written by Peter Selinger 2001-2013
</metadata>
<g transform="translate(0.000000,700.000000) scale(0.100000,-0.100000)"
fill="#000000" stroke="none">
<path d="M3310 6993 c-513 -35 -944 -150 -1370 -363 -207 -104 -341 -186 -516
-315 -1046 -775 -1575 -2051 -1383 -3335 82 -546 295 -1073 613 -1515 211
-294 517 -600 811 -811 967 -695 2254 -846 3357 -393 1124 462 1931 1471 2127
2659 36 218 45 339 45 580 0 238 -9 356 -44 578 -81 504 -302 1037 -604 1457
-211 293 -518 600 -811 811 -349 251 -783 450 -1210 554 -312 76 -723 114
-1015 93z m480 -1647 c750 -123 1346 -671 1524 -1401 39 -163 50 -260 50 -445
0 -96 -6 -213 -13 -260 -65 -417 -242 -771 -531 -1060 -288 -288 -644 -466
-1060 -531 -110 -17 -410 -17 -520 0 -416 65 -772 243 -1060 531 -288 288
-466 644 -531 1060 -17 110 -17 410 0 520 65 416 243 772 531 1060 320 320
709 499 1185 544 74 7 339 -4 425 -18z"/>
</g>
</svg>
