<?xml version="1.0" encoding="UTF-8"?>
<svg id="Capa_1" data-name="Capa 1" xmlns="http://www.w3.org/2000/svg" xmlns:xlink="http://www.w3.org/1999/xlink" viewBox="0 0 250 200">
  <defs>
    <style>
      .cls-1 {
        fill: url(#Degradado_sin_nombre-10);
      }

      .cls-1, .cls-2, .cls-3, .cls-4, .cls-5, .cls-6, .cls-7, .cls-8, .cls-9, .cls-10, .cls-11, .cls-12, .cls-13, .cls-14, .cls-15, .cls-16, .cls-17, .cls-18, .cls-19, .cls-20, .cls-21, .cls-22, .cls-23, .cls-24, .cls-25, .cls-26, .cls-27, .cls-28, .cls-29, .cls-30 {
        stroke-width: 0px;
      }

      .cls-2 {
        fill: url(#Degradado_sin_nombre-2);
      }

      .cls-3 {
        fill: url(#Degradado_sin_nombre-28);
      }

      .cls-4 {
        fill: url(#Degradado_sin_nombre-6);
      }

      .cls-5 {
        fill: url(#Degradado_sin_nombre-29);
      }

      .cls-6 {
        fill: url(#Degradado_sin_nombre-9);
      }

      .cls-6, .cls-12, .cls-29 {
        fill-rule: evenodd;
      }

      .cls-7 {
        fill: url(#Degradado_sin_nombre-16);
      }

      .cls-8 {
        fill: url(#Degradado_sin_nombre-18);
      }

      .cls-9 {
        fill: url(#Degradado_sin_nombre-17);
      }

      .cls-10 {
        fill: url(#Degradado_sin_nombre-22);
      }

      .cls-11 {
        fill: url(#Degradado_sin_nombre-20);
      }

      .cls-12 {
        fill: url(#Degradado_sin_nombre-27);
      }

      .cls-13 {
        fill: url(#Degradado_sin_nombre-13);
      }

      .cls-14 {
        fill: url(#Degradado_sin_nombre-8);
      }

      .cls-15 {
        fill: url(#Degradado_sin_nombre-26);
      }

      .cls-16 {
        fill: url(#Degradado_sin_nombre-7);
      }

      .cls-17 {
        fill: url(#Degradado_sin_nombre-5);
      }

      .cls-18 {
        fill: url(#Degradado_sin_nombre-19);
      }

      .cls-19 {
        fill: url(#Degradado_sin_nombre-14);
      }

      .cls-20 {
        fill: url(#Degradado_sin_nombre-24);
      }

      .cls-21 {
        fill: url(#Degradado_sin_nombre-3);
      }

      .cls-22 {
        fill: url(#Degradado_sin_nombre-23);
      }

      .cls-23 {
        fill: url(#Degradado_sin_nombre-15);
      }

      .cls-24 {
        fill: url(#Degradado_sin_nombre-25);
      }

      .cls-25 {
        fill: url(#Degradado_sin_nombre-21);
      }

      .cls-26 {
        fill: #fff;
      }

      .cls-27 {
        fill: url(#Degradado_sin_nombre);
      }

      .cls-28 {
        fill: url(#Degradado_sin_nombre-11);
      }

      .cls-29 {
        fill: url(#Degradado_sin_nombre-4);
      }

      .cls-30 {
        fill: url(#Degradado_sin_nombre-12);
      }
    </style>
    <linearGradient id="Degradado_sin_nombre" data-name="Degradado sin nombre" x1="186.249" y1="-79.836" x2="-58.066" y2="119.715" gradientUnits="userSpaceOnUse">
      <stop offset="0" stop-color="#f0f"/>
      <stop offset="1" stop-color="aqua"/>
    </linearGradient>
    <linearGradient id="Degradado_sin_nombre-2" data-name="Degradado sin nombre" x1="189.738" y1="-75.564" x2="-54.577" y2="123.986" xlink:href="#Degradado_sin_nombre"/>
    <linearGradient id="Degradado_sin_nombre-3" data-name="Degradado sin nombre" x1="221.62" y1="-36.53" x2="-22.694" y2="163.02" xlink:href="#Degradado_sin_nombre"/>
    <linearGradient id="Degradado_sin_nombre-4" data-name="Degradado sin nombre" x1="213.046" y1="-47.027" x2="-31.268" y2="152.524" xlink:href="#Degradado_sin_nombre"/>
    <linearGradient id="Degradado_sin_nombre-5" data-name="Degradado sin nombre" x1="239.091" y1="-15.14" x2="-5.223" y2="184.411" xlink:href="#Degradado_sin_nombre"/>
    <linearGradient id="Degradado_sin_nombre-6" data-name="Degradado sin nombre" x1="225.219" y1="-32.124" x2="-19.096" y2="167.426" xlink:href="#Degradado_sin_nombre"/>
    <linearGradient id="Degradado_sin_nombre-7" data-name="Degradado sin nombre" x1="226.34" y1="-30.752" x2="-17.975" y2="168.799" xlink:href="#Degradado_sin_nombre"/>
    <linearGradient id="Degradado_sin_nombre-8" data-name="Degradado sin nombre" x1="282.494" y1="37.999" x2="38.18" y2="237.55" xlink:href="#Degradado_sin_nombre"/>
    <linearGradient id="Degradado_sin_nombre-9" data-name="Degradado sin nombre" x1="269.505" y1="22.096" x2="25.19" y2="221.647" xlink:href="#Degradado_sin_nombre"/>
    <linearGradient id="Degradado_sin_nombre-10" data-name="Degradado sin nombre" x1="234.594" y1="-20.646" x2="-9.721" y2="178.904" xlink:href="#Degradado_sin_nombre"/>
    <linearGradient id="Degradado_sin_nombre-11" data-name="Degradado sin nombre" x1="245.931" y1="-6.766" x2="1.616" y2="192.785" xlink:href="#Degradado_sin_nombre"/>
    <linearGradient id="Degradado_sin_nombre-12" data-name="Degradado sin nombre" x1="239.144" y1="-15.076" x2="-5.171" y2="184.475" xlink:href="#Degradado_sin_nombre"/>
    <linearGradient id="Degradado_sin_nombre-13" data-name="Degradado sin nombre" x1="298.876" y1="58.056" x2="54.561" y2="257.607" xlink:href="#Degradado_sin_nombre"/>
    <linearGradient id="Degradado_sin_nombre-14" data-name="Degradado sin nombre" x1="305.922" y1="66.682" x2="61.607" y2="266.233" xlink:href="#Degradado_sin_nombre"/>
    <linearGradient id="Degradado_sin_nombre-15" data-name="Degradado sin nombre" x1="299.723" y1="59.093" x2="55.409" y2="258.644" xlink:href="#Degradado_sin_nombre"/>
    <linearGradient id="Degradado_sin_nombre-16" data-name="Degradado sin nombre" x1="249.27" y1="-2.678" x2="4.955" y2="196.873" xlink:href="#Degradado_sin_nombre"/>
    <linearGradient id="Degradado_sin_nombre-17" data-name="Degradado sin nombre" x1="255.75" y1="5.256" x2="11.435" y2="204.806" xlink:href="#Degradado_sin_nombre"/>
    <linearGradient id="Degradado_sin_nombre-18" data-name="Degradado sin nombre" x1="242.741" y1="-10.671" x2="-1.573" y2="188.88" xlink:href="#Degradado_sin_nombre"/>
    <linearGradient id="Degradado_sin_nombre-19" data-name="Degradado sin nombre" x1="245.181" y1="-7.684" x2=".866" y2="191.866" xlink:href="#Degradado_sin_nombre"/>
    <linearGradient id="Degradado_sin_nombre-20" data-name="Degradado sin nombre" x1="242.182" y1="-11.356" x2="-2.133" y2="188.195" xlink:href="#Degradado_sin_nombre"/>
    <linearGradient id="Degradado_sin_nombre-21" data-name="Degradado sin nombre" x1="234.264" y1="-21.05" x2="-10.051" y2="178.501" xlink:href="#Degradado_sin_nombre"/>
    <linearGradient id="Degradado_sin_nombre-22" data-name="Degradado sin nombre" x1="298.441" y1="57.524" x2="54.127" y2="257.075" xlink:href="#Degradado_sin_nombre"/>
    <linearGradient id="Degradado_sin_nombre-23" data-name="Degradado sin nombre" x1="296.703" y1="55.396" x2="52.389" y2="254.947" xlink:href="#Degradado_sin_nombre"/>
    <linearGradient id="Degradado_sin_nombre-24" data-name="Degradado sin nombre" x1="273.72" y1="27.258" x2="29.406" y2="226.808" xlink:href="#Degradado_sin_nombre"/>
    <linearGradient id="Degradado_sin_nombre-25" data-name="Degradado sin nombre" x1="252.133" y1=".827" x2="7.818" y2="200.378" xlink:href="#Degradado_sin_nombre"/>
    <linearGradient id="Degradado_sin_nombre-26" data-name="Degradado sin nombre" x1="256.033" y1="5.603" x2="11.719" y2="205.153" xlink:href="#Degradado_sin_nombre"/>
    <linearGradient id="Degradado_sin_nombre-27" data-name="Degradado sin nombre" x1="263.593" y1="14.858" x2="19.278" y2="214.408" xlink:href="#Degradado_sin_nombre"/>
    <linearGradient id="Degradado_sin_nombre-28" data-name="Degradado sin nombre" x1="281.947" y1="37.33" x2="37.632" y2="236.88" xlink:href="#Degradado_sin_nombre"/>
    <linearGradient id="Degradado_sin_nombre-29" data-name="Degradado sin nombre" x1="290.993" y1="48.405" x2="46.678" y2="247.955" xlink:href="#Degradado_sin_nombre"/>
  </defs>
  <g>
    <g>
      <path class="cls-27" d="M49.148,37.472l-17.413-1.889,7.129,16.067,10.284-14.178ZM50.3,34.973c1.15.118,1.987,1.146,1.869,2.296-.038.371-.174.724-.395,1.025l-11.274,15.546c-.921,1.271-2.987,1.203-3.679-.355l-7.817-17.618c-.691-1.558.645-3.136,2.205-2.966l19.091,2.073Z"/>
      <path class="cls-2" d="M68.236,29.002l-17.413-1.889,7.129,16.067,10.284-14.178ZM69.389,26.503c1.15.118,1.987,1.146,1.869,2.296-.038.371-.174.724-.395,1.025l-11.274,15.546c-.921,1.271-2.987,1.203-3.679-.355l-7.817-17.618c-.691-1.558.645-3.136,2.205-2.966l19.091,2.073Z"/>
    </g>
    <path class="cls-21" d="M140.627,44.093l-20.3-11.776v23.552l20.3-11.776ZM143.397,41.659c1.344.77,1.81,2.484,1.041,3.828-.248.433-.607.793-1.041,1.041l-22.255,12.913c-1.819,1.056-4.312-.15-4.312-2.434v-25.826c0-2.284,2.494-3.491,4.312-2.434l22.255,12.913Z"/>
    <path class="cls-29" d="M67.993,58.4c-.648-1.885.354-3.939,2.239-4.587l12.8-4.403c1.712-.589,3.596.181,4.405,1.802l4.496-4.184c.729-.68,1.871-.64,2.551.089.172.185.304.404.386.643l4.381,12.735c.323.943-.179,1.969-1.122,2.293-.238.082-.491.113-.742.091l-6.121-.532c.36,1.775-.651,3.541-2.364,4.13l-12.8,4.403c-1.885.648-3.939-.354-4.587-2.239l-3.523-10.24ZM90.658,60.48l6.887.601-4.381-12.735-5.06,4.71,2.554,7.424ZM70.82,55.519c-.943.324-1.444,1.351-1.12,2.294l3.523,10.24c.324.943,1.351,1.444,2.294,1.12l12.8-4.403c.943-.324,1.444-1.351,1.12-2.294l-3.523-10.24c-.324-.943-1.351-1.444-2.294-1.12l-12.8,4.403Z"/>
    <g>
      <path class="cls-17" d="M49.791,126.463c3.664-4.313,10.131-4.838,14.444-1.174s4.838,10.131,1.174,14.444-10.131,4.838-14.444,1.174c-4.313-3.664-4.838-10.131-1.174-14.444M62.806,137.521c2.443-2.875,2.093-7.186-.783-9.629-2.875-2.443-7.186-2.093-9.629.783s-2.093,7.186.783,9.629,7.186,2.093,9.629-.783"/>
      <path class="cls-4" d="M48.617,112.019l-1.301-1.106c-2.612-2.219-3.176-6.03-1.318-8.91l-11.152-3.281c-1.81-.531-2.848-2.428-2.317-4.239.135-.459.364-.885.674-1.25l16.504-19.424c1.223-1.437,3.379-1.61,4.815-.387.363.309.657.691.864,1.12l5.041,10.478c2.542-2.299,6.394-2.358,9.006-.138l19.522,16.588c2.875,2.443,3.226,6.754.783,9.629l-13.27,15.618c-2.443,2.875-6.754,3.226-9.629.783l-18.221-15.482ZM52.307,76.024l-16.499,19.418,12.55,3.693,9.621-11.323-5.671-11.789ZM73.864,124.506l13.27-15.618c1.221-1.438,1.046-3.593-.391-4.815l-19.522-16.588c-1.438-1.221-3.593-1.046-4.815.391l-13.27,15.618c-1.221,1.438-1.046,3.593.391,4.815l19.522,16.588c1.438,1.221,3.593,1.046,4.815-.391"/>
      <path class="cls-16" d="M48.617,112.019c-4.313-3.664-10.78-3.139-14.444,1.174s-3.139,10.78,1.174,14.444,10.78,3.139,14.444-1.174,3.139-10.78-1.174-14.444M47.188,124.251c-2.443,2.875-6.754,3.226-9.629.783s-3.226-6.754-.783-9.629,6.754-3.226,9.629-.783,3.226,6.754.783,9.629"/>
    </g>
    <path class="cls-14" d="M176.407,129.582l-13.567-2.16,4.957,12.865,8.61-10.705ZM177.407,127.669c.896.137,1.512.976,1.374,1.872-.044.289-.165.561-.349.787l-9.438,11.738c-.771.96-2.387.826-2.868-.422l-5.436-14.107c-.481-1.248.627-2.432,1.843-2.237l14.874,2.369Z"/>
    <path class="cls-6" d="M163.1,79.561c.905-2.837,3.938-4.404,6.775-3.499l19.263,6.142c2.577.821,4.147,3.425,3.67,6.088l9.12-1.003c1.48-.164,2.813.902,2.977,2.382.042.375.004.755-.111,1.115l-6.111,19.166c-.453,1.418-1.971,2.2-3.389,1.747-.358-.115-.689-.303-.97-.553l-6.859-6.097c-1.152,2.447-3.939,3.662-6.517,2.84l-19.263-6.142c-2.837-.905-4.404-3.938-3.499-6.775l4.913-15.411ZM188.399,102.27l7.715,6.863,6.111-19.166-10.264,1.13-3.562,11.173ZM169.056,78.63c-1.419-.452-2.935.331-3.387,1.75l-4.913,15.411c-.452,1.419.331,2.935,1.75,3.387l19.263,6.142c1.419.452,2.935-.331,3.387-1.75l4.913-15.411c.452-1.419-.331-2.935-1.75-3.387l-19.263-6.142Z"/>
    <g>
      <path class="cls-1" d="M172.617,34.619c0,3.14-2.545,5.685-5.685,5.685s-5.685-2.545-5.685-5.685,2.545-5.685,5.685-5.685,5.685,2.545,5.685,5.685M163.142,34.619c0,2.093,1.697,3.79,3.79,3.79s3.79-1.697,3.79-3.79-1.697-3.79-3.79-3.79-3.79,1.697-3.79,3.79"/>
      <path class="cls-28" d="M178.301,40.303h.947c1.901,0,3.509,1.408,3.758,3.293l5.893-2.619c.956-.426,2.076.004,2.502.96.108.242.164.505.164.77v14.14c0,1.047-.85,1.894-1.897,1.893-.264,0-.526-.056-.768-.163l-5.895-2.619c-.249,1.885-1.856,3.294-3.758,3.293h-14.212c-2.093,0-3.79-1.697-3.79-3.79v-11.37c0-2.093,1.697-3.79,3.79-3.79h13.265ZM189.671,56.846v-14.136l-6.632,2.947v8.243l6.632,2.947ZM163.142,44.093v11.37c0,1.047.848,1.895,1.895,1.895h14.212c1.047,0,1.895-.848,1.895-1.895v-11.37c0-1.047-.848-1.895-1.895-1.895h-14.212c-1.047,0-1.895.848-1.895,1.895"/>
      <path class="cls-30" d="M178.301,40.303c3.14,0,5.685-2.545,5.685-5.685s-2.545-5.685-5.685-5.685-5.685,2.545-5.685,5.685,2.545,5.685,5.685,5.685M174.512,34.619c0-2.093,1.697-3.79,3.79-3.79s3.79,1.697,3.79,3.79-1.697,3.79-3.79,3.79-3.79-1.697-3.79-3.79"/>
    </g>
    <g>
      <path class="cls-13" d="M177.3,158.221c1.036,1.852.373,4.194-1.479,5.229s-4.194.373-5.229-1.479-.373-4.194,1.479-5.229,4.194-.373,5.229,1.479M171.71,161.346c.69,1.235,2.251,1.676,3.486.986s1.676-2.251.986-3.486-2.251-1.676-3.486-.986-1.676,2.251-.986,3.486"/>
      <path class="cls-19" d="M182.529,159.7l.559-.313c1.122-.627,2.535-.326,3.303.704l2.613-3.489c.424-.567,1.226-.683,1.793-.259.144.107.263.244.351.4l4.664,8.343c.345.618.123,1.398-.495,1.743-.156.087-.329.141-.507.157l-4.342.399c.475,1.194-.009,2.556-1.131,3.183l-8.385,4.688c-1.235.69-2.796.249-3.486-.986l-3.75-6.708c-.69-1.235-.249-2.796.986-3.486l7.826-4.375ZM194.694,165.711l-4.663-8.341-2.941,3.926,2.719,4.864,4.885-.449ZM174.835,166.937l3.75,6.708c.345.617,1.126.838,1.743.493l8.385-4.688c.617-.345.838-1.126.493-1.743l-3.75-6.708c-.345-.617-1.126-.838-1.743-.493l-8.385,4.688c-.617.345-.838,1.126-.493,1.743"/>
      <path class="cls-23" d="M182.529,159.7c1.852-1.036,2.515-3.377,1.479-5.229s-3.377-2.515-5.229-1.479-2.515,3.377-1.479,5.229,3.377,2.515,5.229,1.479M178.418,157.596c-.69-1.235-.249-2.796.986-3.486s2.796-.249,3.486.986.249,2.796-.986,3.486-2.796.249-3.486-.986"/>
    </g>
    <g>
      <path class="cls-7" d="M53.523,165.013l-10.177-7.068-1.01,12.394,11.187-5.326ZM55.085,163.851c.674.463.846,1.385.383,2.059-.149.217-.354.391-.592.503l-12.265,5.84c-1.002.478-2.263-.264-2.165-1.466l1.108-13.59c.098-1.202,1.462-1.73,2.374-1.096l11.157,7.75Z"/>
      <path class="cls-9" d="M68.247,166.213l-10.177-7.068-1.01,12.394,11.187-5.326ZM69.809,165.051c.674.463.846,1.385.383,2.059-.149.217-.354.391-.592.503l-12.265,5.84c-1.002.478-2.263-.264-2.165-1.466l1.108-13.59c.098-1.202,1.462-1.73,2.374-1.096l11.157,7.75Z"/>
    </g>
    <g>
      <path class="cls-8" d="M144.046,73.666l-8.458-1.918,2.595,8.308,5.863-6.391ZM144.755,72.502c.559.123.912.677.789,1.236-.04.18-.127.346-.252.482l-6.428,7.007c-.525.573-1.538.422-1.789-.384l-2.845-9.11c-.252-.806.495-1.506,1.253-1.334l9.273,2.103Z"/>
      <path class="cls-18" d="M153.916,70.583l-8.458-1.918,2.595,8.308,5.863-6.391ZM154.625,69.419c.559.123.912.677.789,1.236-.04.18-.127.346-.252.482l-6.428,7.007c-.525.573-1.538.422-1.789-.384l-2.845-9.11c-.252-.806.495-1.506,1.253-1.334l9.273,2.103Z"/>
    </g>
    <g>
      <path class="cls-11" d="M109.452,88.882l8.627,9.247,3.683-12.146-12.31,2.899ZM107.643,89.704c-.573-.607-.545-1.564.062-2.137.196-.185.437-.314.699-.374l13.496-3.179c1.103-.26,2.2.752,1.843,1.93l-4.038,13.318c-.357,1.178-1.832,1.41-2.605.581l-9.458-10.139Z"/>
      <path class="cls-25" d="M95.022,84.506l8.627,9.247,3.683-12.146-12.31,2.899ZM93.213,85.328c-.573-.607-.545-1.564.062-2.137.196-.185.437-.314.699-.374l13.496-3.179c1.103-.26,2.2.752,1.843,1.93l-4.038,13.318c-.357,1.178-1.832,1.41-2.605.581l-9.458-10.139Z"/>
    </g>
    <g>
      <path class="cls-10" d="M209.447,127.559l-11.912,4.247,9.686,8.202,2.227-12.449ZM209.411,125.572c.785-.285,1.652.12,1.937.905.092.253.114.526.066.79l-2.44,13.649c-.199,1.116-1.564,1.721-2.503.926l-10.621-8.994c-.939-.795-.567-2.241.501-2.621l13.061-4.655Z"/>
      <path class="cls-22" d="M219.192,116.053l-11.912,4.247,9.686,8.202,2.227-12.449ZM219.155,114.066c.785-.285,1.652.12,1.937.905.092.253.114.526.066.79l-2.44,13.649c-.199,1.116-1.564,1.721-2.503.926l-10.621-8.994c-.939-.795-.567-2.241.501-2.621l13.061-4.655Z"/>
    </g>
    <path class="cls-20" d="M118.42,168.728l-13.64-18.19-8.922,21.001,22.562-2.811ZM121.812,167.606c.907,1.196.673,2.9-.522,3.808-.385.292-.842.477-1.322.534l-24.736,3.084c-2.022.253-3.788-1.768-2.923-3.804l9.783-23.028c.865-2.037,3.546-2.168,4.767-.537l14.953,19.944Z"/>
    <path class="cls-24" d="M213.672,39.231l-13.024-4.055,3.038,13.348,9.986-9.293ZM214.928,37.494c.861.263,1.346,1.174,1.084,2.035-.085.278-.242.527-.456.724l-10.947,10.189c-.894.833-2.463.471-2.758-.823l-3.332-14.637c-.295-1.294.963-2.3,2.13-1.936l14.279,4.447Z"/>
    <path class="cls-15" d="M88.825,150.02l-3.617-13.153-9.596,9.763,13.213,3.389ZM90.965,150.139c.244.867-.261,1.767-1.128,2.011-.279.079-.575.081-.855.007l-14.487-3.715c-1.184-.303-1.726-1.819-.796-2.766l10.523-10.706c.931-.947,2.456-.431,2.779.748l3.964,14.42Z"/>
    <path class="cls-12" d="M145.356,122.899c.926,1.876.155,4.148-1.722,5.074l-12.741,6.285c-1.704.841-3.768.289-4.825-1.291l-4.125,4.954c-.669.805-1.863.915-2.668.246-.204-.17-.37-.38-.488-.618l-6.253-12.677c-.462-.939-.076-2.074.863-2.536.237-.117.496-.183.76-.193l6.443-.259c-.61-1.8.208-3.774,1.912-4.614l12.741-6.285c1.876-.926,4.148-.155,5.074,1.722l5.028,10.193ZM121.483,123.745l-7.25.29,6.253,12.677,4.642-5.576-3.645-7.39ZM142.796,126.274c.938-.463,1.324-1.599.861-2.537l-5.028-10.193c-.463-.938-1.599-1.324-2.537-.861l-12.741,6.285c-.938.463-1.324,1.599-.861,2.537l5.028,10.193c.463.938,1.599,1.324,2.537.861l12.741-6.285Z"/>
    <g>
      <path class="cls-3" d="M145.693,156.197l-4.972-11.349-7.348,10.031,12.32,1.318ZM147.633,156.024c.332.747-.004,1.623-.751,1.955-.241.107-.506.148-.768.119l-13.507-1.444c-1.104-.118-1.79-1.41-1.077-2.382l8.058-10.999c.713-.973,2.151-.709,2.596.309l5.45,12.443Z"/>
      <path class="cls-5" d="M157.611,164.926l-4.972-11.349-7.348,10.031,12.32,1.318ZM159.55,164.754c.332.747-.004,1.623-.751,1.955-.241.107-.506.148-.768.119l-13.507-1.444c-1.104-.118-1.79-1.41-1.077-2.382l8.058-10.999c.713-.973,2.151-.709,2.596.309l5.45,12.443Z"/>
    </g>
  </g>
  <path class="cls-26" d="M66.585,48.887c0-4.033,3.269-7.302,7.302-7.302h102.226c4.033,0,7.302,3.269,7.302,7.302v102.226c0,4.033-3.269,7.302-7.302,7.302h-102.226c-4.033,0-7.302-3.269-7.302-7.302V48.887ZM95.793,48.887v43.811h58.415v-43.811h-58.415ZM154.207,107.302h-58.415v43.811h58.415v-43.811ZM73.887,48.887v14.604h14.604v-14.604h-14.604ZM88.491,70.793h-14.604v14.604h14.604v-14.604ZM73.887,92.698v14.604h14.604v-14.604h-14.604ZM88.491,114.604h-14.604v14.604h14.604v-14.604ZM73.887,136.509v14.604h14.604v-14.604h-14.604ZM176.113,48.887h-14.604v14.604h14.604v-14.604ZM161.509,70.793v14.604h14.604v-14.604h-14.604ZM176.113,92.698h-14.604v14.604h14.604v-14.604ZM161.509,114.604v14.604h14.604v-14.604h-14.604ZM176.113,136.509h-14.604v14.604h14.604v-14.604Z"/>
</svg>