<?xml version="1.0" encoding="utf-8"?>
<!-- Generator: Adobe Illustrator 28.3.0, SVG Export Plug-In . SVG Version: 6.00 Build 0)  -->
<!DOCTYPE svg PUBLIC "-//W3C//DTD SVG 1.1//EN" "http://www.w3.org/Graphics/SVG/1.1/DTD/svg11.dtd" [
	<!ENTITY ns_extend "http://ns.adobe.com/Extensibility/1.0/">
	<!ENTITY ns_ai "http://ns.adobe.com/AdobeIllustrator/10.0/">
	<!ENTITY ns_graphs "http://ns.adobe.com/Graphs/1.0/">
	<!ENTITY ns_vars "http://ns.adobe.com/Variables/1.0/">
	<!ENTITY ns_imrep "http://ns.adobe.com/ImageReplacement/1.0/">
	<!ENTITY ns_sfw "http://ns.adobe.com/SaveForWeb/1.0/">
	<!ENTITY ns_custom "http://ns.adobe.com/GenericCustomNamespace/1.0/">
	<!ENTITY ns_adobe_xpath "http://ns.adobe.com/XPath/1.0/">
]>
<svg version="1.1" id="Capa_1" xmlns:x="&ns_extend;" xmlns:i="&ns_ai;" xmlns:graph="&ns_graphs;"
	 xmlns="http://www.w3.org/2000/svg" xmlns:xlink="http://www.w3.org/1999/xlink" x="0px" y="0px" viewBox="0 0 250 200"
	 style="enable-background:new 0 0 250 200;" xml:space="preserve">
<style type="text/css">
	.st0{fill:url(#SVGID_1_);}
	.st1{fill:url(#SVGID_00000131358781430374078490000011483729559983959940_);}
	.st2{fill:url(#SVGID_00000042709967511931129240000002196897021917033651_);}
	.st3{fill:url(#SVGID_00000046307223461117904830000018062099787750631086_);}
	.st4{fill:url(#SVGID_00000083788249889117788630000016220106289500395137_);}
	.st5{fill:url(#SVGID_00000057864097322801724640000017862224503538205075_);}
	.st6{fill:url(#SVGID_00000067956260677722411580000005929473540850152595_);}
	.st7{fill:url(#SVGID_00000008859268565478477980000001645963573372912532_);}
	.st8{fill:url(#SVGID_00000169549082305118395180000015639015135317390466_);}
	.st9{fill:url(#SVGID_00000157291571047806541970000011194692569964479882_);}
	.st10{fill:url(#SVGID_00000180360338886976448990000011540762165780329399_);}
	.st11{fill:url(#SVGID_00000041988042372606493620000013971105361871959206_);}
	.st12{fill:url(#SVGID_00000106868588625279139730000004568702279378033031_);}
	.st13{fill:url(#SVGID_00000080199766352047865030000015376504554576416692_);}
	.st14{fill:url(#SVGID_00000141441549931189076980000012237523305383161505_);}
	.st15{fill:url(#SVGID_00000041293346737231633670000017863463821835827627_);}
	.st16{fill:url(#SVGID_00000171704474960302765870000002245345570407030165_);}
	.st17{fill:url(#SVGID_00000159458182400069490790000007220185925937986206_);}
	.st18{fill:url(#SVGID_00000083775570380825460680000001601349720796952507_);}
	.st19{fill:#FFFFFF;}
</style>
<metadata>
	<sfw  xmlns="&ns_sfw;">
		<slices></slices>
		<sliceSourceBounds  bottomLeftOrigin="true" height="167.931" width="192.961" x="3.519" y="16.034"></sliceSourceBounds>
	</sfw>
</metadata>
<g>
	<linearGradient id="SVGID_1_" gradientUnits="userSpaceOnUse" x1="256.5052" y1="-69.1831" x2="-45.2476" y2="170.2776">
		<stop  offset="0" style="stop-color:#FF00FF"/>
		<stop  offset="1" style="stop-color:#00FFFF"/>
	</linearGradient>
	<path class="st0" d="M110.967,39.786l-0.091-0.35c2.098-0.779,2.868-2.153,2.319-4.266l-1.002-3.854
		c-0.61-2.346-0.021-3.516,2.046-4.053l0.585-0.152l-0.538-2.07l-0.806,0.21c-3.457,0.899-4.664,2.95-3.776,6.366l0.85,3.268
		c0.61,2.346,0.005,3.332-2.384,3.953l0.724,2.786c2.389-0.621,3.397-0.054,4.007,2.292l0.85,3.268
		c0.888,3.416,2.939,4.621,6.398,3.722l0.806-0.21l-0.537-2.067l-0.585,0.152c-2.067,0.537-3.151-0.197-3.761-2.544l-1.002-3.856
		c-0.549-2.11-1.89-2.936-4.102-2.597 M136.124,32.874l0.091,0.35c-2.098,0.781-2.867,2.156-2.319,4.266l1.002,3.856
		c0.61,2.346,0.021,3.516-2.046,4.053l-0.585,0.152l0.537,2.067l0.806-0.21c3.459-0.899,4.664-2.95,3.776-6.366l-0.85-3.268
		c-0.61-2.346-0.005-3.332,2.384-3.953l-0.724-2.786c-2.389,0.621-3.397,0.054-4.007-2.292l-0.85-3.268
		c-0.888-3.416-2.941-4.62-6.398-3.722l-0.806,0.21l0.537,2.067l0.585-0.152c2.067-0.537,3.151,0.197,3.761,2.544l1.002,3.856
		c0.549,2.11,1.89,2.936,4.102,2.597"/>
	
		<linearGradient id="SVGID_00000061447618181779031760000012599925787576885912_" gradientUnits="userSpaceOnUse" x1="284.1422" y1="-34.3568" x2="-17.6107" y2="205.1039">
		<stop  offset="0" style="stop-color:#FF00FF"/>
		<stop  offset="1" style="stop-color:#00FFFF"/>
	</linearGradient>
	<path style="fill:url(#SVGID_00000061447618181779031760000012599925787576885912_);" d="M117.069,87.305l0.107-0.25
		c1.605,0.501,2.695,0.038,3.34-1.47l1.176-2.752c0.716-1.675,1.604-2.1,3.079-1.469l0.418,0.179l0.632-1.478l-0.576-0.246
		c-2.468-1.055-4.129-0.39-5.171,2.049l-0.997,2.333c-0.716,1.675-1.529,1.983-3.234,1.254l-0.85,1.989
		c1.706,0.729,2.044,1.529,1.328,3.204l-0.997,2.333c-1.042,2.439-0.377,4.098,2.092,5.154l0.576,0.246l0.631-1.476l-0.418-0.179
		c-1.476-0.631-1.783-1.566-1.066-3.241l1.177-2.753c0.644-1.507,0.226-2.614-1.245-3.429 M135.201,94.76l-0.107,0.25
		c-1.606-0.5-2.695-0.036-3.34,1.47l-1.177,2.753c-0.716,1.675-1.604,2.1-3.079,1.469l-0.418-0.179l-0.631,1.476l0.576,0.246
		c2.47,1.056,4.129,0.39,5.171-2.049l0.997-2.333c0.716-1.675,1.529-1.983,3.234-1.254l0.85-1.989
		c-1.706-0.729-2.044-1.529-1.328-3.204l0.997-2.333c1.042-2.439,0.375-4.098-2.092-5.154l-0.576-0.246l-0.631,1.476l0.418,0.179
		c1.476,0.631,1.783,1.566,1.066,3.241l-1.177,2.753c-0.644,1.507-0.226,2.614,1.245,3.429"/>
	
		<linearGradient id="SVGID_00000078029350815801766520000012090337657459856776_" gradientUnits="userSpaceOnUse" x1="315.5338" y1="5.2009" x2="13.781" y2="244.6616">
		<stop  offset="0" style="stop-color:#FF00FF"/>
		<stop  offset="1" style="stop-color:#00FFFF"/>
	</linearGradient>
	<path style="fill:url(#SVGID_00000078029350815801766520000012090337657459856776_);" d="M172.144,117.335
		c0.437-0.474,0.408-1.214-0.067-1.651c-0.474-0.437-1.214-0.408-1.651,0.067l-21.548,23.358c-0.437,0.474-0.408,1.214,0.067,1.651
		c0.474,0.437,1.214,0.408,1.651-0.067L172.144,117.335z M157.771,116.926c0.215,0.608-0.103,1.276-0.712,1.491c0,0-0.002,0-0.003,0
		l-9.806,3.454l3.457,9.805c0.215,0.609-0.105,1.277-0.715,1.492s-1.277-0.105-1.492-0.715l-3.843-10.908
		c-0.215-0.608,0.103-1.276,0.712-1.491c0,0,0.002,0,0.003,0l10.908-3.843c0.608-0.215,1.276,0.103,1.491,0.712
		C157.771,116.923,157.771,116.925,157.771,116.926 M171.03,123.275c-0.609,0.214-0.929,0.88-0.715,1.489c0,0,0,0.002,0,0.003
		l3.457,9.805l-9.806,3.454c-0.609,0.215-0.929,0.883-0.715,1.492s0.883,0.929,1.492,0.715l10.908-3.843
		c0.609-0.214,0.929-0.88,0.715-1.489c0,0,0-0.002,0-0.003l-3.843-10.908c-0.214-0.609-0.88-0.929-1.489-0.715c0,0-0.002,0-0.003,0"
		/>
	
		<linearGradient id="SVGID_00000045603980850581610830000017318380303592300433_" gradientUnits="userSpaceOnUse" x1="289.3515" y1="-27.7923" x2="-12.4013" y2="211.6683">
		<stop  offset="0" style="stop-color:#FF00FF"/>
		<stop  offset="1" style="stop-color:#00FFFF"/>
	</linearGradient>
	<path style="fill:url(#SVGID_00000045603980850581610830000017318380303592300433_);" d="M88.053,119.816
		c0.224-0.719-0.176-1.483-0.895-1.707s-1.483,0.176-1.707,0.895l-4.015,12.863c-0.225,0.717,0.174,1.481,0.892,1.706
		c0.001,0,0.002,0,0.003,0.001l12.863,4.015c0.719,0.224,1.483-0.176,1.707-0.895s-0.176-1.483-0.895-1.707l-11.565-3.607
		l3.611-11.563L88.053,119.816z M98.402,114.391c-0.719-0.224-1.119-0.989-0.895-1.707s0.989-1.119,1.707-0.895l12.863,4.015
		c0.718,0.223,1.119,0.986,0.896,1.704c0,0.001,0,0.002-0.001,0.003l-4.015,12.863c-0.224,0.719-0.989,1.119-1.707,0.895
		s-1.119-0.989-0.895-1.707l3.611-11.563l-11.565-3.607L98.402,114.391z"/>
	
		<linearGradient id="SVGID_00000114049733008140188390000015929754708333670290_" gradientUnits="userSpaceOnUse" x1="290.9865" y1="-25.7319" x2="-10.7663" y2="213.7287">
		<stop  offset="0" style="stop-color:#FF00FF"/>
		<stop  offset="1" style="stop-color:#00FFFF"/>
	</linearGradient>
	<path style="fill:url(#SVGID_00000114049733008140188390000015929754708333670290_);" d="M189.349,41.763
		c0.55-0.514,0.58-1.376,0.066-1.926c-0.514-0.55-1.376-0.58-1.926-0.066l-9.848,9.197c-0.55,0.512-0.581,1.373-0.068,1.924
		c0.001,0,0.002,0.001,0.002,0.002l9.197,9.848c0.514,0.55,1.376,0.58,1.926,0.066c0.55-0.514,0.58-1.376,0.066-1.926l-8.271-8.852
		l8.854-8.267L189.349,41.763z M201.027,42.163c-0.514-0.55-0.484-1.413,0.066-1.926c0.55-0.513,1.413-0.484,1.926,0.066
		l9.197,9.848c0.514,0.549,0.485,1.41-0.063,1.924c0,0.001-0.001,0.002-0.002,0.002l-9.848,9.197
		c-0.55,0.514-1.413,0.484-1.926-0.066c-0.513-0.55-0.484-1.413,0.066-1.926l8.854-8.267l-8.271-8.852L201.027,42.163z"/>
	
		<linearGradient id="SVGID_00000092423048457642260700000013920962143370777764_" gradientUnits="userSpaceOnUse" x1="228.127" y1="-104.9434" x2="-73.6258" y2="134.5173">
		<stop  offset="0" style="stop-color:#FF00FF"/>
		<stop  offset="1" style="stop-color:#00FFFF"/>
	</linearGradient>
	<path style="fill:url(#SVGID_00000092423048457642260700000013920962143370777764_);" d="M54.297,17.747
		c0.128-0.776-0.396-1.511-1.173-1.639c-0.776-0.128-1.511,0.396-1.639,1.173l-6.342,38.243c-0.128,0.776,0.396,1.511,1.173,1.639
		c0.776,0.128,1.511-0.396,1.639-1.173L54.297,17.747z M39.365,26.949c0.626,0.476,0.749,1.37,0.272,1.997
		c0,0-0.002,0.001-0.003,0.002l-7.689,10.085l10.088,7.686c0.627,0.477,0.748,1.373,0.269,2c-0.478,0.628-1.373,0.748-2,0.269
		l-11.22-8.552c-0.626-0.476-0.749-1.37-0.272-1.997c0,0,0.002-0.001,0.003-0.002l8.552-11.22c0.476-0.626,1.37-0.749,1.997-0.272
		C39.363,26.946,39.364,26.948,39.365,26.949 M57.136,24.55c-0.478,0.626-0.358,1.519,0.267,1.997c0,0,0.001,0.002,0.002,0.003
		l10.088,7.686l-7.689,10.085c-0.477,0.627-0.356,1.522,0.269,2c0.626,0.478,1.522,0.356,2-0.269l8.552-11.22
		c0.478-0.626,0.358-1.519-0.267-1.997c0,0-0.001-0.002-0.002-0.003l-11.22-8.552c-0.626-0.478-1.519-0.358-1.997,0.267
		c0,0-0.002,0.001-0.003,0.002"/>
	
		<linearGradient id="SVGID_00000054244195643927433500000010170185147519104177_" gradientUnits="userSpaceOnUse" x1="295.2901" y1="-20.3088" x2="-6.4627" y2="219.1519">
		<stop  offset="0" style="stop-color:#FF00FF"/>
		<stop  offset="1" style="stop-color:#00FFFF"/>
	</linearGradient>
	<path style="fill:url(#SVGID_00000054244195643927433500000010170185147519104177_);" d="M70.959,153.848l0.316,0.272
		c-1.48,2.117-1.309,3.926,0.599,5.572l3.481,3c2.119,1.826,2.328,3.324,0.719,5.19l-0.455,0.528l1.87,1.612l0.627-0.728
		c2.691-3.123,2.49-5.862-0.595-8.522l-2.952-2.544c-2.119-1.826-2.192-3.159-0.332-5.317l-2.516-2.169
		c-1.86,2.158-3.189,2.281-5.308,0.455l-2.952-2.544c-3.086-2.659-5.823-2.457-8.516,0.667l-0.627,0.728l1.867,1.609l0.455-0.528
		c1.609-1.867,3.12-1.882,5.24-0.054l3.483,3.002c1.906,1.642,3.721,1.546,5.599-0.228 M51.618,176.924l-0.316-0.272
		c1.479-2.119,1.306-3.929-0.599-5.572l-3.483-3.002c-2.119-1.826-2.328-3.324-0.719-5.19l0.455-0.528l-1.867-1.609l-0.627,0.728
		c-2.693,3.124-2.49,5.862,0.595,8.522l2.952,2.544c2.119,1.826,2.192,3.159,0.332,5.317l2.516,2.169
		c1.86-2.158,3.189-2.281,5.308-0.455l2.952,2.544c3.086,2.659,5.825,2.454,8.516-0.667l0.627-0.728l-1.867-1.609l-0.455,0.528
		c-1.609,1.867-3.12,1.882-5.24,0.054l-3.483-3.002c-1.906-1.642-3.721-1.546-5.599,0.228"/>
	
		<linearGradient id="SVGID_00000025422363739192041380000000319089146030943917_" gradientUnits="userSpaceOnUse" x1="268.7698" y1="-53.728" x2="-32.983" y2="185.7327">
		<stop  offset="0" style="stop-color:#FF00FF"/>
		<stop  offset="1" style="stop-color:#00FFFF"/>
	</linearGradient>
	<path style="fill:url(#SVGID_00000025422363739192041380000000319089146030943917_);" d="M166.914,16.973
		c0.041-0.475-0.31-0.894-0.785-0.935c-0.475-0.041-0.894,0.31-0.935,0.785l-2.045,23.394c-0.041,0.475,0.31,0.894,0.785,0.935
		c0.475,0.041,0.894-0.31,0.935-0.785L166.914,16.973z M158.325,23.228c0.4,0.258,0.516,0.793,0.257,1.194
		c0,0-0.001,0.001-0.002,0.001l-4.173,6.451l6.452,4.171c0.401,0.259,0.516,0.794,0.256,1.195c-0.26,0.401-0.794,0.516-1.195,0.256
		l-7.176-4.641c-0.4-0.258-0.516-0.793-0.257-1.194c0,0,0.001-0.001,0.002-0.001l4.641-7.176c0.258-0.4,0.793-0.516,1.194-0.257
		C158.324,23.227,158.325,23.228,158.325,23.228 M168.947,20.949c-0.259,0.4-0.146,0.934,0.255,1.194c0,0,0.001,0.001,0.001,0.002
		l6.452,4.171l-4.173,6.451c-0.259,0.401-0.144,0.936,0.256,1.195c0.4,0.259,0.936,0.144,1.195-0.256l4.641-7.176
		c0.259-0.4,0.146-0.934-0.255-1.194c0,0-0.001-0.001-0.001-0.002l-7.176-4.641c-0.4-0.259-0.934-0.146-1.194,0.255
		C168.949,20.948,168.948,20.948,168.947,20.949"/>
	
		<linearGradient id="SVGID_00000090261366569698262810000004762623233235326117_" gradientUnits="userSpaceOnUse" x1="254.4729" y1="-71.744" x2="-47.2799" y2="167.7166">
		<stop  offset="0" style="stop-color:#FF00FF"/>
		<stop  offset="1" style="stop-color:#00FFFF"/>
	</linearGradient>
	<path style="fill:url(#SVGID_00000090261366569698262810000004762623233235326117_);" d="M85.519,53.672
		c0.362-0.338,0.382-0.906,0.043-1.268c-0.338-0.362-0.906-0.382-1.268-0.043l-6.48,6.052c-0.362,0.337-0.382,0.904-0.045,1.266
		c0.001,0,0.001,0.001,0.001,0.002l6.052,6.48c0.338,0.362,0.906,0.382,1.268,0.043s0.382-0.906,0.043-1.268l-5.442-5.825
		L85.519,53.672L85.519,53.672z M93.203,53.935c-0.338-0.362-0.318-0.93,0.043-1.268c0.362-0.338,0.93-0.318,1.268,0.043l6.052,6.48
		c0.338,0.361,0.319,0.928-0.042,1.266c0,0.001-0.001,0.001-0.002,0.001l-6.48,6.052c-0.362,0.338-0.93,0.318-1.268-0.043
		c-0.338-0.362-0.318-0.93,0.043-1.268l5.826-5.44L93.203,53.935L93.203,53.935z"/>
	
		<linearGradient id="SVGID_00000013903620938322817630000004982763229384987298_" gradientUnits="userSpaceOnUse" x1="345.1262" y1="42.4913" x2="43.3734" y2="281.952">
		<stop  offset="0" style="stop-color:#FF00FF"/>
		<stop  offset="1" style="stop-color:#00FFFF"/>
	</linearGradient>
	<path style="fill:url(#SVGID_00000013903620938322817630000004982763229384987298_);" d="M197.422,170.174l-0.125,0.21
		c-1.372-0.639-2.399-0.356-3.154,0.912l-1.378,2.314c-0.839,1.408-1.681,1.681-2.922,0.942l-0.351-0.209l-0.74,1.243l0.484,0.288
		c2.075,1.236,3.635,0.841,4.857-1.209l1.168-1.962c0.839-1.408,1.6-1.586,3.034-0.732l0.996-1.672
		c-1.434-0.854-1.64-1.608-0.802-3.017l1.168-1.962c1.221-2.051,0.826-3.61-1.25-4.846l-0.484-0.288l-0.739,1.241l0.351,0.209
		c1.241,0.739,1.403,1.609,0.564,3.018l-1.379,2.314c-0.754,1.267-0.514,2.304,0.7,3.207 M182.142,161.359l0.125-0.21
		c1.373,0.638,2.4,0.354,3.154-0.912l1.379-2.314c0.839-1.408,1.681-1.681,2.922-0.942l0.351,0.209l0.739-1.241l-0.484-0.288
		c-2.076-1.237-3.635-0.841-4.857,1.209l-1.168,1.962c-0.839,1.408-1.6,1.586-3.034,0.732l-0.996,1.672
		c1.434,0.854,1.64,1.608,0.802,3.017l-1.168,1.962c-1.221,2.051-0.825,3.61,1.25,4.846l0.484,0.288l0.739-1.241l-0.351-0.209
		c-1.241-0.739-1.403-1.609-0.564-3.018l1.379-2.314c0.754-1.267,0.514-2.304-0.7-3.207"/>
	
		<linearGradient id="SVGID_00000141428046671775709180000002830103990087710625_" gradientUnits="userSpaceOnUse" x1="335.8849" y1="30.846" x2="34.132" y2="270.3067">
		<stop  offset="0" style="stop-color:#FF00FF"/>
		<stop  offset="1" style="stop-color:#00FFFF"/>
	</linearGradient>
	<path style="fill:url(#SVGID_00000141428046671775709180000002830103990087710625_);" d="M219.562,127.63l0.062,0.24
		c-1.439,0.534-1.967,1.477-1.59,2.926l0.687,2.643c0.418,1.609,0.014,2.411-1.403,2.78l-0.401,0.104l0.369,1.42l0.553-0.144
		c2.371-0.617,3.199-2.023,2.59-4.366l-0.583-2.241c-0.418-1.609-0.003-2.285,1.635-2.711l-0.497-1.911
		c-1.638,0.426-2.33,0.037-2.748-1.572l-0.583-2.241c-0.609-2.343-2.016-3.169-4.388-2.553l-0.553,0.144l0.368,1.418l0.401-0.104
		c1.418-0.368,2.161,0.135,2.579,1.745l0.687,2.644c0.376,1.447,1.296,2.013,2.813,1.781 M202.311,132.37l-0.062-0.24
		c1.439-0.536,1.966-1.479,1.59-2.926l-0.687-2.644c-0.418-1.609-0.014-2.411,1.403-2.78l0.401-0.104l-0.368-1.418l-0.553,0.144
		c-2.372,0.617-3.199,2.023-2.59,4.366l0.583,2.241c0.418,1.609,0.003,2.285-1.635,2.711l0.497,1.911
		c1.638-0.426,2.33-0.037,2.748,1.572l0.583,2.241c0.609,2.343,2.017,3.168,4.388,2.553l0.553-0.144l-0.368-1.418l-0.401,0.104
		c-1.418,0.368-2.161-0.135-2.579-1.745l-0.687-2.644c-0.377-1.447-1.296-2.013-2.813-1.781"/>
	
		<linearGradient id="SVGID_00000045618952146836230640000015597487616840096187_" gradientUnits="userSpaceOnUse" x1="265.4947" y1="-57.8551" x2="-36.2581" y2="181.6056">
		<stop  offset="0" style="stop-color:#FF00FF"/>
		<stop  offset="1" style="stop-color:#00FFFF"/>
	</linearGradient>
	<path style="fill:url(#SVGID_00000045618952146836230640000015597487616840096187_);" d="M68.117,99.912
		c-0.3,0.325-0.28,0.833,0.046,1.132c0.325,0.3,0.833,0.28,1.132-0.046L84.073,84.98c0.3-0.325,0.28-0.833-0.046-1.132
		c-0.325-0.3-0.833-0.28-1.132,0.046L68.117,99.912z M77.974,100.193c-0.147-0.417,0.071-0.875,0.488-1.023c0,0,0.001,0,0.002,0
		l6.725-2.369l-2.371-6.724c-0.147-0.418,0.072-0.876,0.49-1.023s0.876,0.072,1.023,0.49l2.636,7.481
		c0.147,0.417-0.071,0.875-0.488,1.023c0,0-0.001,0-0.002,0l-7.481,2.636c-0.417,0.147-0.875-0.071-1.023-0.488
		C77.974,100.195,77.974,100.193,77.974,100.193 M68.881,95.838c0.418-0.147,0.637-0.604,0.49-1.021c0,0,0-0.001,0-0.002
		l-2.371-6.724l6.725-2.369c0.418-0.147,0.637-0.606,0.49-1.023c-0.147-0.418-0.606-0.637-1.023-0.49l-7.481,2.636
		c-0.418,0.147-0.637,0.604-0.49,1.021c0,0,0,0.001,0,0.002l2.636,7.481c0.147,0.418,0.604,0.637,1.021,0.49
		C68.878,95.838,68.88,95.838,68.881,95.838"/>
	
		<linearGradient id="SVGID_00000067924976516094716840000010252236293735248821_" gradientUnits="userSpaceOnUse" x1="290.7625" y1="-26.0143" x2="-10.9904" y2="213.4464">
		<stop  offset="0" style="stop-color:#FF00FF"/>
		<stop  offset="1" style="stop-color:#00FFFF"/>
	</linearGradient>
	<path style="fill:url(#SVGID_00000067924976516094716840000010252236293735248821_);" d="M168.835,79.768
		c-0.377,0.353-0.398,0.944-0.045,1.321c0.353,0.377,0.944,0.398,1.321,0.045l6.754-6.307c0.377-0.351,0.398-0.942,0.047-1.319
		c-0.001,0-0.001-0.001-0.001-0.002l-6.307-6.754c-0.353-0.377-0.944-0.398-1.321-0.045c-0.377,0.353-0.398,0.944-0.045,1.321
		l5.672,6.071L168.835,79.768L168.835,79.768z M160.827,79.494c0.353,0.377,0.332,0.969-0.045,1.321
		c-0.377,0.352-0.969,0.332-1.321-0.045l-6.307-6.754c-0.352-0.376-0.333-0.967,0.043-1.32c0-0.001,0.001-0.001,0.002-0.001
		l6.754-6.307c0.377-0.353,0.969-0.332,1.321,0.045c0.352,0.377,0.332,0.969-0.045,1.321l-6.072,5.669L160.827,79.494
		L160.827,79.494z"/>
	
		<linearGradient id="SVGID_00000067199072412232728440000011706092664470639806_" gradientUnits="userSpaceOnUse" x1="321.5127" y1="12.7351" x2="19.7599" y2="252.1958">
		<stop  offset="0" style="stop-color:#FF00FF"/>
		<stop  offset="1" style="stop-color:#00FFFF"/>
	</linearGradient>
	<path style="fill:url(#SVGID_00000067199072412232728440000011706092664470639806_);" d="M122.995,180.734
		c-0.088,0.532,0.272,1.036,0.805,1.124c0.532,0.088,1.036-0.272,1.124-0.805l4.349-26.227c0.088-0.532-0.272-1.036-0.805-1.124
		c-0.532-0.088-1.036,0.272-1.124,0.805L122.995,180.734z M133.235,174.423c-0.429-0.327-0.514-0.94-0.186-1.37
		c0,0,0.001-0.001,0.002-0.001l5.273-6.917l-6.918-5.271c-0.43-0.327-0.513-0.941-0.185-1.372c0.328-0.43,0.941-0.513,1.372-0.185
		l7.694,5.865c0.429,0.327,0.514,0.94,0.186,1.37c0,0-0.001,0.001-0.002,0.001l-5.865,7.694c-0.327,0.429-0.94,0.514-1.37,0.186
		C133.237,174.425,133.236,174.424,133.235,174.423 M121.048,176.068c0.328-0.429,0.246-1.042-0.183-1.37
		c0,0-0.001-0.001-0.001-0.002l-6.918-5.271l5.273-6.917c0.327-0.43,0.244-1.044-0.185-1.372c-0.429-0.328-1.044-0.244-1.372,0.185
		l-5.865,7.694c-0.328,0.429-0.246,1.042,0.183,1.37c0,0,0.001,0.001,0.001,0.002l7.694,5.865c0.429,0.328,1.042,0.246,1.37-0.183
		C121.045,176.07,121.047,176.069,121.048,176.068"/>
	
		<linearGradient id="SVGID_00000008141567286073130320000014419228626033369277_" gradientUnits="userSpaceOnUse" x1="315.1774" y1="4.7518" x2="13.4246" y2="244.2125">
		<stop  offset="0" style="stop-color:#FF00FF"/>
		<stop  offset="1" style="stop-color:#00FFFF"/>
	</linearGradient>
	<path style="fill:url(#SVGID_00000008141567286073130320000014419228626033369277_);" d="M201.092,97.936l-0.217-0.187
		c1.015-1.452,0.898-2.693-0.411-3.821l-2.387-2.058c-1.453-1.252-1.597-2.279-0.493-3.559l0.312-0.362l-1.282-1.105l-0.43,0.5
		c-1.846,2.142-1.708,4.02,0.408,5.844l2.025,1.745c1.453,1.252,1.503,2.167,0.228,3.647l1.726,1.488
		c1.276-1.48,2.187-1.565,3.64-0.312l2.025,1.745c2.116,1.824,3.994,1.685,5.841-0.458l0.43-0.5l-1.28-1.104l-0.312,0.362
		c-1.104,1.28-2.14,1.29-3.594,0.037l-2.388-2.059c-1.307-1.126-2.552-1.06-3.839,0.156 M214.356,82.111l0.217,0.187
		c-1.014,1.453-0.896,2.694,0.411,3.821l2.388,2.059c1.453,1.252,1.597,2.279,0.493,3.559l-0.312,0.362l1.28,1.104l0.43-0.5
		c1.847-2.143,1.708-4.02-0.408-5.844l-2.025-1.745c-1.453-1.252-1.503-2.167-0.228-3.647l-1.726-1.488
		c-1.276,1.48-2.187,1.565-3.64,0.312l-2.025-1.745c-2.116-1.824-3.994-1.683-5.841,0.458l-0.43,0.5l1.28,1.104l0.312-0.362
		c1.104-1.28,2.14-1.29,3.594-0.037l2.388,2.059c1.307,1.126,2.552,1.06,3.839-0.156"/>
	
		<linearGradient id="SVGID_00000106123318091896888190000004315141829317995161_" gradientUnits="userSpaceOnUse" x1="307.473" y1="-4.9568" x2="5.7202" y2="234.5039">
		<stop  offset="0" style="stop-color:#FF00FF"/>
		<stop  offset="1" style="stop-color:#00FFFF"/>
	</linearGradient>
	<path style="fill:url(#SVGID_00000106123318091896888190000004315141829317995161_);" d="M178.274,104.517
		c-0.028,0.325,0.213,0.613,0.538,0.641c0.325,0.028,0.613-0.213,0.641-0.538l1.402-16.044c0.028-0.325-0.213-0.613-0.538-0.641
		c-0.325-0.028-0.613,0.213-0.641,0.538L178.274,104.517z M184.164,100.227c-0.275-0.177-0.354-0.544-0.177-0.819
		c0,0,0.001-0.001,0.001-0.001l2.862-4.424l-4.425-2.86c-0.275-0.178-0.354-0.545-0.176-0.82s0.545-0.354,0.82-0.176l4.921,3.183
		c0.275,0.177,0.354,0.544,0.177,0.819c0,0-0.001,0.001-0.001,0.001l-3.183,4.921c-0.177,0.275-0.544,0.354-0.819,0.177
		C184.165,100.228,184.165,100.227,184.164,100.227 M176.88,101.79c0.178-0.275,0.1-0.641-0.175-0.819c0,0-0.001-0.001-0.001-0.001
		l-4.425-2.86l2.862-4.424c0.178-0.275,0.099-0.642-0.176-0.82c-0.275-0.178-0.642-0.099-0.82,0.176l-3.183,4.921
		c-0.178,0.275-0.1,0.641,0.175,0.819c0,0,0.001,0.001,0.001,0.001l4.921,3.183c0.275,0.178,0.641,0.1,0.819-0.175
		C176.879,101.791,176.879,101.79,176.88,101.79"/>
	
		<linearGradient id="SVGID_00000005261177521608437530000009067706238516132025_" gradientUnits="userSpaceOnUse" x1="269.8335" y1="-52.3876" x2="-31.9193" y2="187.073">
		<stop  offset="0" style="stop-color:#FF00FF"/>
		<stop  offset="1" style="stop-color:#00FFFF"/>
	</linearGradient>
	<path style="fill:url(#SVGID_00000005261177521608437530000009067706238516132025_);" d="M40.826,135.284
		c-0.248,0.232-0.262,0.621-0.03,0.869c0.232,0.248,0.621,0.262,0.869,0.03l4.444-4.15c0.248-0.231,0.262-0.62,0.031-0.868
		c0,0-0.001,0-0.001-0.001l-4.15-4.444c-0.232-0.248-0.621-0.262-0.869-0.03c-0.248,0.232-0.262,0.621-0.03,0.869l3.732,3.995
		L40.826,135.284L40.826,135.284z M35.556,135.104c0.232,0.248,0.218,0.638-0.03,0.869c-0.248,0.232-0.638,0.218-0.869-0.03
		l-4.15-4.444c-0.232-0.248-0.219-0.636,0.029-0.868c0,0,0-0.001,0.001-0.001l4.444-4.15c0.248-0.232,0.638-0.218,0.869,0.03
		s0.218,0.638-0.03,0.869l-3.996,3.73L35.556,135.104L35.556,135.104z"/>
	
		<linearGradient id="SVGID_00000159466694684210958470000004596963583308533411_" gradientUnits="userSpaceOnUse" x1="253.3312" y1="-73.1828" x2="-48.4216" y2="166.2779">
		<stop  offset="0" style="stop-color:#FF00FF"/>
		<stop  offset="1" style="stop-color:#00FFFF"/>
	</linearGradient>
	<path style="fill:url(#SVGID_00000159466694684210958470000004596963583308533411_);" d="M30.776,96.249l0.086-0.144
		c0.941,0.438,1.645,0.244,2.163-0.625l0.945-1.587c0.575-0.966,1.153-1.153,2.004-0.646l0.241,0.143l0.507-0.852l-0.332-0.197
		c-1.423-0.847-2.493-0.577-3.331,0.829l-0.801,1.345c-0.575,0.966-1.097,1.088-2.081,0.502l-0.683,1.147
		c0.983,0.586,1.125,1.103,0.55,2.069l-0.801,1.345c-0.837,1.406-0.566,2.476,0.857,3.324l0.332,0.197l0.507-0.851l-0.241-0.143
		c-0.851-0.507-0.962-1.104-0.387-2.07l0.945-1.587C31.774,97.58,31.609,96.868,30.776,96.249 M41.255,102.295l-0.086,0.144
		c-0.941-0.438-1.646-0.243-2.163,0.625l-0.945,1.587c-0.575,0.966-1.153,1.153-2.004,0.646l-0.241-0.143l-0.507,0.851l0.332,0.197
		c1.424,0.848,2.493,0.577,3.331-0.829l0.801-1.345c0.575-0.966,1.097-1.088,2.081-0.502l0.683-1.147
		c-0.983-0.586-1.125-1.103-0.55-2.069l0.801-1.345c0.837-1.406,0.565-2.476-0.857-3.324l-0.332-0.197l-0.507,0.851l0.241,0.143
		c0.851,0.507,0.962,1.104,0.387,2.07l-0.945,1.587C40.256,100.964,40.421,101.675,41.255,102.295"/>
	
		<linearGradient id="SVGID_00000108308878185743342780000000866857585911271051_" gradientUnits="userSpaceOnUse" x1="330.3398" y1="23.8584" x2="28.5869" y2="263.3191">
		<stop  offset="0" style="stop-color:#FF00FF"/>
		<stop  offset="1" style="stop-color:#00FFFF"/>
	</linearGradient>
	<path style="fill:url(#SVGID_00000108308878185743342780000000866857585911271051_);" d="M160.341,164.702
		c-0.248,0.232-0.262,0.621-0.03,0.869s0.621,0.262,0.869,0.03l4.444-4.15c0.248-0.231,0.262-0.62,0.031-0.868
		c0,0-0.001,0-0.001-0.001l-4.15-4.444c-0.232-0.248-0.621-0.262-0.869-0.03s-0.262,0.621-0.03,0.869l3.732,3.995L160.341,164.702
		L160.341,164.702z M155.071,164.522c0.232,0.248,0.218,0.638-0.03,0.869c-0.248,0.232-0.638,0.218-0.869-0.03l-4.15-4.444
		c-0.232-0.248-0.219-0.636,0.029-0.868c0,0,0-0.001,0.001-0.001l4.444-4.15c0.248-0.232,0.638-0.218,0.869,0.03
		c0.232,0.248,0.218,0.638-0.03,0.869l-3.996,3.73L155.071,164.522L155.071,164.522z"/>
</g>
<g>
	<path class="st19" d="M55.451,63.052c0,0,0-17.387,17.387-17.387h104.324c0,0,17.387,0,17.387,17.387v52.162
		c0,0,0,17.387-17.387,17.387h-34.775c0,5.796,0.724,10.143,2.173,13.04h6.52c2.401,0,4.347,1.946,4.347,4.347
		c0,2.401-1.946,4.347-4.347,4.347H98.919c-2.401,0-4.347-1.946-4.347-4.347c0-2.401,1.946-4.347,4.347-4.347h6.52
		c1.449-2.898,2.173-7.245,2.173-13.04H72.838c0,0-17.387,0-17.387-17.387V63.052z M67.605,55.619
		c-0.954,0.665-1.716,1.571-2.208,2.625c-0.732,1.534-1.158,3.197-1.252,4.895v52.075c0,2.825,0.678,4.364,1.261,5.234
		c0.609,0.904,1.484,1.64,2.625,2.208c1.468,0.703,3.054,1.124,4.677,1.243l0.217,0.009h104.237c2.825,0,4.364-0.678,5.234-1.261
		c0.954-0.665,1.716-1.571,2.208-2.625c0.703-1.468,1.124-3.054,1.243-4.677l0.009-0.217V63.052c0-2.825-0.678-4.364-1.261-5.234
		c-0.665-0.954-1.571-1.716-2.625-2.208c-1.534-0.732-3.197-1.158-4.895-1.252H72.838C70.013,54.358,68.474,55.037,67.605,55.619"/>
	<g>
		<path class="st19" d="M149.832,72.253H76.587c-2.609,0-4.744-2.135-4.744-4.744v-0.457c0-2.609,2.135-4.744,4.744-4.744h73.245
			c2.609,0,4.744,2.135,4.744,4.744v0.457C154.576,70.118,152.441,72.253,149.832,72.253z"/>
		<path class="st19" d="M172.463,72.253h-7.011c-2.609,0-4.744-2.135-4.744-4.744v-0.457c0-2.609,2.135-4.744,4.744-4.744h7.011
			c2.609,0,4.744,2.135,4.744,4.744v0.457C177.207,70.118,175.072,72.253,172.463,72.253z"/>
		<path class="st19" d="M171.14,116.144H77.91c-3.337,0-6.067-2.73-6.067-6.067V84.359c0-3.337,2.73-6.067,6.067-6.067h93.23
			c3.337,0,6.067,2.73,6.067,6.067v25.718C177.207,113.413,174.477,116.144,171.14,116.144z"/>
	</g>
</g>
</svg>
