<?xml version="1.0" encoding="UTF-8"?><svg id="Capa_1" xmlns="http://www.w3.org/2000/svg" viewBox="0 0 188.836 193.507"><defs><style>.cls-1{fill:#f0f;}.cls-1,.cls-2{stroke-width:0px;}.cls-2{fill:#fff;}</style></defs><path class="cls-2" d="M128.027,62.613c-8.837-8.924-20.871-13.925-33.434-13.881-26.037,0-47.271,21.223-47.293,47.271,0,8.353,2.187,16.464,6.309,23.652l-6.693,24.509,25.081-6.572c6.935,3.781,14.706,5.759,22.597,5.748h.033c26.048,0,47.271-21.212,47.293-47.293.011-12.551-4.99-24.586-13.892-33.434ZM94.417,9.517c48.183,0,87.233,39.061,87.233,87.233s-39.05,87.233-87.233,87.233S7.184,144.934,7.184,96.75,46.245,9.517,94.417,9.517Z"/><path class="cls-1" d="M128.027,62.613c8.902,8.847,13.903,20.882,13.892,33.434-.022,26.081-21.245,47.293-47.293,47.293h-.033c-7.891.011-15.662-1.967-22.597-5.748l-25.081,6.572,6.693-24.509c-4.122-7.188-6.309-15.299-6.309-23.652.022-26.048,21.256-47.271,47.293-47.271,12.562-.044,24.597,4.957,33.434,13.881ZM133.907,96.025c.033-10.43-4.111-20.432-11.496-27.795-7.353-7.386-17.365-11.529-27.784-11.518-21.674,0-39.314,17.651-39.314,39.27-.011,7.397,2.066,14.651,6.001,20.904l.934,1.495-3.968,14.519,14.87-3.902,1.429.857c6.067,3.583,12.98,5.484,20.014,5.484,21.663,0,39.292-17.607,39.314-39.314Z"/><path class="cls-2" d="M122.411,68.23c7.386,7.364,11.529,17.365,11.496,27.795-.022,21.707-17.651,39.314-39.314,39.314-7.034,0-13.947-1.901-20.014-5.484l-1.429-.857-14.87,3.902,3.968-14.519-.934-1.495c-3.935-6.254-6.012-13.508-6.001-20.904,0-21.619,17.64-39.27,39.314-39.27,10.419-.011,20.432,4.132,27.784,11.518ZM117.74,112.918c.978-2.759.978-5.122.681-5.616-.286-.506-1.088-.802-2.264-1.385-1.176-.593-6.979-3.451-8.067-3.858-1.088-.385-1.879-.593-2.66.593-.791,1.176-3.055,3.847-3.737,4.616-.681.802-1.385.89-2.561.308-1.176-.604-4.99-1.846-9.496-5.88-3.517-3.132-5.88-7.012-6.583-8.177-.681-1.187-.066-1.813.528-2.407.517-.528,1.176-1.385,1.769-2.066s.791-1.176,1.176-1.967c.385-.802.209-1.484-.088-2.066-.297-.593-2.649-6.419-3.649-8.771-.956-2.319-1.923-2-2.66-2.022-.67-.044-1.473-.044-2.264-.044-1.209.033-2.352.561-3.154,1.473-1.088,1.176-4.122,4.034-4.122,9.859s4.231,11.43,4.836,12.222c.583.791,8.309,12.716,20.179,17.849,2.803,1.22,5.001,1.945,6.726,2.495,2.836.901,5.396.769,7.43.473,2.264-.341,6.99-2.858,7.979-5.627Z"/><path class="cls-1" d="M118.421,107.301c.297.495.297,2.858-.681,5.616-.989,2.77-5.715,5.287-7.979,5.627-2.033.297-4.594.429-7.43-.473-1.726-.55-3.924-1.275-6.726-2.495-11.87-5.133-19.596-17.058-20.179-17.849-.604-.791-4.836-6.386-4.836-12.222s3.033-8.683,4.122-9.859c.802-.912,1.945-1.44,3.154-1.473.791,0,1.594,0,2.264.044.736.022,1.704-.297,2.66,2.022,1,2.352,3.352,8.177,3.649,8.771.297.583.473,1.264.088,2.066-.385.791-.583,1.286-1.176,1.967s-1.253,1.539-1.769,2.066c-.593.593-1.209,1.22-.528,2.407.703,1.165,3.066,5.045,6.583,8.177,4.506,4.034,8.32,5.276,9.496,5.88,1.176.583,1.879.495,2.561-.308.681-.769,2.946-3.44,3.737-4.616.78-1.187,1.572-.978,2.66-.593,1.088.407,6.891,3.264,8.067,3.858,1.176.583,1.978.879,2.264,1.385Z"/></svg>